<?xml version="1.0" encoding="UTF-8"?>
<svg width="1539px" height="601px" viewBox="0 0 1539 601" version="1.1" xmlns="http://www.w3.org/2000/svg" xmlns:xlink="http://www.w3.org/1999/xlink">
    <title>bg-lines</title>
    <g id="Page-1" stroke="none" stroke-width="1" fill="none" fill-rule="evenodd" opacity="0.51499721">
        <g id="QB-Homepage-option1" transform="translate(66.000000, -49.000000)" stroke="#FF9592" stroke-width="1.75999993">
            <g id="bg-lines" transform="translate(-66.000000, 50.000000)">
                <path d="M2.6399999,368.016904 C213.691351,393.20886 745.379768,75.5873092 1060.29257,63.8619972 C1270.23444,56.0451225 1424.15019,129.976578 1522.03983,285.656364" id="Path-4" opacity="0.200000003"></path>
                <path d="M2.6399999,346.375608 C241.682912,305.167613 565.230712,113.867308 931.262573,35.0832483 C1174.69486,-8.66237506 1371.57413,65.2049138 1521.90041,256.685115" id="Path-4" opacity="0.200000003"></path>
                <path d="M14.6711333,473.678353 C466.289746,518.974303 789.052277,145.952685 1073.47633,112.021252 C1263.09236,89.4002959 1412.51934,137.875047 1521.75727,257.445504" id="Path-4" opacity="0.300000012" transform="translate(768.214202, 292.055031) rotate(5.000000) translate(-768.214202, -292.055031) "></path>
                <path d="M13.6002196,495.631596 C468.016827,579.771495 801.785451,209.612837 1079.08106,156.795637 C1263.9448,121.58417 1411.14657,162.451873 1520.68636,279.398746" id="Path-4" opacity="0.200000003" transform="translate(767.143288, 326.295629) rotate(5.000000) translate(-767.143288, -326.295629) "></path>
                <path d="M12.8014894,516.716721 C469.558008,611.628361 802.733408,265.729099 1080.3825,198.967149 C1265.48189,154.459183 1411.9836,188.29809 1519.88763,300.483872" id="Path-4" opacity="0.100000001" transform="translate(766.344558, 356.545156) rotate(5.000000) translate(-766.344558, -356.545156) "></path>
                <path d="M15.8470731,452.733263 C342.953213,494.209933 837.252949,64.0429747 1117.02175,65.6725269 C1303.53429,66.7588951 1439.00861,126.140472 1523.44473,243.817259" id="Path-4" opacity="0.300000012" transform="translate(769.645902, 260.609448) rotate(5.000000) translate(-769.645902, -260.609448) "></path>
            </g>
        </g>
    </g>
</svg>