<?xml version="1.0" encoding="UTF-8"?>
<svg width="82px" height="77px" viewBox="0 0 82 77" version="1.1" xmlns="http://www.w3.org/2000/svg" xmlns:xlink="http://www.w3.org/1999/xlink">
    <!-- Generator: Sketch 63.1 (92452) - https://sketch.com -->
    <title>art-galleries</title>
    <desc>Created with Sketch.</desc>
    <g id="Page-1" stroke="none" stroke-width="1" fill="none" fill-rule="evenodd">
        <g id="slashq_desktop" transform="translate(-797.000000, -815.000000)" fill-rule="nonzero">
            <g id="Group-42" transform="translate(304.000000, 811.000000)">
                <g id="Group-5" transform="translate(462.000000, 0.000000)">
                    <g id="art-galleries" transform="translate(29.000000, 0.000000)">
                        <path d="M72.9251314,9.29088819 C79.5082634,15.2108366 82.6946934,24.7962874 81.3683621,32.8895868 C80.0420309,40.9828862 74.2191131,47.5515961 69.8680996,54.8826008 C65.5170861,62.2136054 62.6703263,70.3231239 56.2974663,75.6916251 C49.9084316,81.0601263 39.9771219,83.7038293 31.9544352,80.8817169 C23.9155738,78.0596044 17.7853354,69.7878957 12.8358553,60.9323015 C7.87020042,52.0767074 4.11765343,42.669666 4.99109109,33.4572531 C5.88070353,24.2448402 11.4286502,15.2270557 19.0954918,9.50173567 C26.7623335,3.77641566 36.5804198,1.34356013 46.4632052,1.23002688 C56.3621654,1.13271266 66.3419994,3.37093974 72.9251314,9.29088819 Z" id="Path" fill="#FFCCCD" opacity="0.300000012" transform="translate(43.264370, 41.626995) rotate(-94.000000) translate(-43.264370, -41.626995) "></path>
                        <g id="exhibition" transform="translate(6.400000, 7.200000)">
                            <path d="M10.7360629,36.4337243 L62.9925055,36.4337243 C63.5492085,36.4337243 64.0005054,35.9824273 64.0005054,35.4257244 L64.0005054,1.0079999 C64.0005054,0.740561874 63.8942267,0.484085827 63.7050655,0.29503261 C63.5159042,0.105979394 63.2593675,-1.64809492e-07 62.9919295,-1.64809492e-07 L10.7360629,-1.64809492e-07 C10.1793599,-1.64809492e-07 9.72806152,0.451296926 9.72806152,1.0079999 L9.72806152,35.4239964 C9.72806152,35.6916338 9.8336013,35.9484667 10.0226877,36.1378772 C10.2117741,36.3272878 10.468425,36.4337243 10.7360629,36.4337243 Z M11.7440628,2.01599979 L61.9845056,2.01599979 L61.9845056,34.4177245 L11.7440628,34.4177245 L11.7440628,2.01599979 Z" id="Shape" fill="#262626"></path>
                            <path d="M58.794618,4.19731157 L14.9333745,4.19731157 C14.3766715,4.19731157 13.9253746,4.64860849 13.9253746,5.20531147 L13.9253746,31.2284128 C13.9253746,31.7851158 14.3766715,32.2364127 14.9333745,32.2364127 L58.794618,32.2364127 C59.3513209,32.2364127 59.8026179,31.7851158 59.8026179,31.2284128 L59.8026179,5.20531147 C59.8026179,4.93797327 59.6964182,4.68158455 59.5073815,4.4925479 C59.3183449,4.30351125 59.0619562,4.19731157 58.794618,4.19731157 Z M45.7078993,20.9963498 L49.8516429,19.295998 L57.7866181,22.0798057 L57.7866181,24.5318375 L45.7078993,20.9963498 Z M57.7866181,6.21331136 L57.7866181,19.942846 L50.1569229,17.2661742 C49.9237417,17.1852281 49.6690901,17.1917786 49.4403789,17.2846062 L42.6090196,20.0897259 L31.1137888,16.7247343 C30.8946025,16.6611166 30.6603429,16.6734995 30.4490849,16.7598703 L15.9413744,22.6943977 L15.9413744,6.21331136 L57.7866181,6.21331136 Z M57.7866181,30.2204129 L15.9413744,30.2204129 L15.9413744,24.8751334 L30.8856928,18.7585901 L57.7848901,26.6325093 L57.7866181,30.2204129 Z" id="Shape" fill="#262626"></path>
                            <path d="M40.8775638,17.2799983 C42.3993777,17.2802312 43.7714736,16.3636919 44.354008,14.957786 C44.9365424,13.5518801 44.6147869,11.9334968 43.5387844,10.8573294 C42.4627818,9.78116208 40.8444477,9.45915882 39.4384526,10.041478 C38.0324576,10.6237971 37.1157082,11.9957527 37.1157082,13.5175666 C37.1182465,15.5942231 38.8009077,17.277142 40.8775638,17.2799983 L40.8775638,17.2799983 Z M40.8775638,11.7717107 C41.5840343,11.7714778 42.2210599,12.1968969 42.4915221,12.849546 C42.7619843,13.5021951 42.6126036,14.2535062 42.1130535,14.7530563 C41.6135034,15.2526064 40.8621923,15.4019871 40.2095432,15.1315249 C39.5568941,14.8610627 39.131475,14.2240371 39.1317079,13.5175666 C39.134245,12.5547832 39.9147779,11.7752804 40.8775638,11.7740148 L40.8775638,11.7717107 Z" id="Shape" fill="#E2292F"></path>
                            <path d="M72.7199925,47.147579 L68.175353,47.147579 C68.7129963,46.3723133 69.0008,45.4512207 69.0001849,44.5077713 L69.0001849,43.8591954 C69.0001849,41.2877048 66.9155799,39.2030998 64.3440894,39.2030998 C61.7725988,39.2030998 59.6879939,41.2877048 59.6879939,43.8591954 L59.6879939,44.5060433 C59.6873788,45.4494927 59.9751825,46.3705853 60.5128258,47.145851 L55.9681863,47.145851 C55.4114833,47.145851 54.9601864,47.5971479 54.9601864,48.1538509 L54.9601864,51.9940425 C54.9601864,52.5507455 55.4114833,53.0020424 55.9681863,53.0020424 L59.6879939,53.0020424 L59.6879939,54.5065543 C55.0719303,56.1665861 46.5068112,58.6750658 36.8639962,58.6750658 C27.2211812,58.6750658 18.6560621,56.1671621 14.0399986,54.5065543 L14.0399986,53.0037704 L17.7598062,53.0037704 C18.3165091,53.0037704 18.7678061,52.5524735 18.7678061,51.9957705 L18.7678061,48.1555789 C18.7678061,47.5988759 18.3165091,47.147579 17.7598062,47.147579 L13.2151666,47.147579 C13.7528099,46.3723133 14.0406137,45.4512207 14.0399986,44.5077713 L14.0399986,43.8591954 C14.0399986,41.2877048 11.9553936,39.2030998 9.38390304,39.2030998 C6.81241249,39.2030998 4.72780751,41.2877048 4.72780751,43.8591954 L4.72780751,44.5060433 C4.72683988,45.4500821 5.01465972,46.3718291 5.55263943,47.147579 L1.0079999,47.147579 C0.451296926,47.147579 5.68434155e-15,47.5988759 5.68434155e-15,48.1555789 L5.68434155e-15,51.9957705 C5.68434155e-15,52.5524735 0.451296926,53.0037704 1.0079999,53.0037704 L4.72780751,53.0037704 L4.72780751,69.5199927 C4.72780751,70.0766957 5.17910444,70.5279926 5.73580741,70.5279926 L13.0319987,70.5279926 C13.5887016,70.5279926 14.0399986,70.0766957 14.0399986,69.5199927 L14.0399986,61.5239615 C21.4056707,63.9606534 29.1060165,65.2348784 36.8639962,65.3007932 C44.6219662,65.234766 52.3222947,63.9605438 59.6879939,61.5239615 L59.6879939,69.5199927 C59.6879939,70.0766957 60.1392908,70.5279926 60.6959938,70.5279926 L67.992185,70.5279926 C68.548888,70.5279926 69.0001849,70.0766957 69.0001849,69.5199927 L69.0001849,53.0037704 L72.7199925,53.0037704 C73.2766955,53.0037704 73.7279924,52.5524735 73.7279924,51.9957705 L73.7279924,48.1555789 C73.7279924,47.5988759 73.2766955,47.147579 72.7199925,47.147579 Z M61.7039937,44.5077713 L61.7039937,43.8591954 C61.7039937,42.4011108 62.8860048,41.2190996 64.3440894,41.2190996 C65.802174,41.2190996 66.9841851,42.4011108 66.9841851,43.8591954 L66.9841851,44.5060433 C66.9841851,45.9641279 65.802174,47.146139 64.3440894,47.146139 C62.8860048,47.146139 61.7039937,45.9641279 61.7039937,44.5060433 L61.7039937,44.5077713 Z M6.74380731,44.5077713 L6.74380731,43.8591954 C6.74380731,42.4011108 7.92581843,41.2190996 9.38390304,41.2190996 C10.8419876,41.2190996 12.0239988,42.4011108 12.0239988,43.8591954 L12.0239988,44.5060433 C12.0239988,45.9641279 10.8419876,47.146139 9.38390304,47.146139 C7.92581843,47.146139 6.74380731,45.9641279 6.74380731,44.5060433 L6.74380731,44.5077713 Z M2.01599979,49.1635788 L16.7518063,49.1635788 L16.7518063,50.9877706 L2.01599979,50.9877706 L2.01599979,49.1635788 Z M12.0239988,68.5119928 L6.74380731,68.5119928 L6.74380731,53.0037704 L12.0239988,53.0037704 L12.0239988,68.5119928 Z M36.8639962,63.2847934 C29.0977785,63.2141311 21.3927051,61.9033449 14.0399986,59.4019778 L14.0399986,56.646394 C21.3773067,59.2274903 29.086565,60.5942421 36.8639962,60.6927936 C44.6413319,60.5947977 52.3505875,59.2286301 59.6879939,56.648122 L59.6879939,59.4019778 C52.3352485,61.9031915 44.6301999,63.2139734 36.8639962,63.2847934 L36.8639962,63.2847934 Z M66.9841851,68.5119928 L61.7039937,68.5119928 L61.7039937,53.0037704 L66.9841851,53.0037704 L66.9841851,68.5119928 Z M71.7119926,50.9877706 L56.9761862,50.9877706 L56.9761862,49.1635788 L71.7119926,49.1635788 L71.7119926,50.9877706 Z" id="Shape" stroke="#DA493D" stroke-width="0.1" fill="#E2292F"></path>
                        </g>
                    </g>
                </g>
            </g>
        </g>
    </g>
</svg>