<?xml version="1.0" encoding="UTF-8"?>
<svg width="82px" height="77px" viewBox="0 0 82 77" version="1.1" xmlns="http://www.w3.org/2000/svg" xmlns:xlink="http://www.w3.org/1999/xlink">
    <!-- Generator: Sketch 63.1 (92452) - https://sketch.com -->
    <title>health-spas</title>
    <desc>Created with Sketch.</desc>
    <g id="Page-1" stroke="none" stroke-width="1" fill="none" fill-rule="evenodd">
        <g id="slashq_desktop" transform="translate(-557.000000, -1012.000000)">
            <g id="Group-43" transform="translate(254.000000, 1006.000000)">
                <g id="Group-5" transform="translate(274.000000, 2.000000)">
                    <g id="health-spas" transform="translate(27.000000, 0.000000)">
                        <path d="M72.9251314,9.29088819 C79.5082634,15.2108366 82.6946934,24.7962874 81.3683621,32.8895868 C80.0420309,40.9828862 74.2191131,47.5515961 69.8680996,54.8826008 C65.5170861,62.2136054 62.6703263,70.3231239 56.2974663,75.6916251 C49.9084316,81.0601263 39.9771219,83.7038293 31.9544352,80.8817169 C23.9155738,78.0596044 17.7853354,69.7878957 12.8358553,60.9323015 C7.87020042,52.0767074 4.11765343,42.669666 4.99109109,33.4572531 C5.88070353,24.2448402 11.4286502,15.2270557 19.0954918,9.50173567 C26.7623335,3.77641566 36.5804198,1.34356013 46.4632052,1.23002688 C56.3621654,1.13271266 66.3419994,3.37093974 72.9251314,9.29088819 Z" id="Path" fill="#FFCCCD" fill-rule="nonzero" opacity="0.300000012" transform="translate(43.264370, 41.626995) rotate(-94.000000) translate(-43.264370, -41.626995) "></path>
                        <g id="massage" transform="translate(9.000000, 9.000000)">
                            <path d="M23.3662403,21.273945 C23.1485111,21.5992128 22.7854523,21.7933392 22.3953432,21.7933392 C22.005234,21.7933392 21.6421752,21.5992128 21.424446,21.273945 C21.1185378,20.8168728 20.4999589,20.6944831 20.0428867,21.0005238 C19.5858145,21.306432 19.4634247,21.925011 19.7694655,22.3820832 C20.3576791,23.2605581 21.3393168,23.7851237 22.3953432,23.7851237 C23.4513695,23.7851237 24.4330072,23.2605581 25.0212208,22.3820832 C25.3272616,21.925011 25.2048718,21.306432 24.7477996,21.0005238 C24.2907275,20.6944831 23.6721485,20.8170054 23.3662403,21.273945 L23.3662403,21.273945 Z" id="Path" fill="#262626" fill-rule="nonzero"></path>
                            <g id="Group">
                                <path d="M33.7842239,41.7696607 C30.3045349,41.7696607 27.5788095,43.5097704 27.5788095,45.7310855 C27.5788095,47.9525331 30.3045349,49.6926428 33.7842239,49.6926428 C37.2639129,49.6926428 39.9896384,47.9525331 39.9896384,45.7310855 C39.9896384,43.5097704 37.2639129,41.7696607 33.7842239,41.7696607 L33.7842239,41.7696607 Z M33.7842239,47.7008584 C31.3726279,47.7008584 29.570594,46.6608766 29.570594,45.7310855 C29.570594,44.8012943 31.3726279,43.7614452 33.7842239,43.7614452 C36.1959526,43.7614452 37.9979865,44.8012943 37.9979865,45.7310855 C37.9978539,46.6608766 36.19582,47.7008584 33.7842239,47.7008584 Z" id="Shape" stroke="#262626" stroke-width="0.1" fill="#262626" fill-rule="nonzero"></path>
                                <path d="M36.0233074,51.7951483 C34.9651595,51.6471667 33.7301231,51.8252485 32.5460052,52.2963763 C31.3618873,52.7675041 30.3420607,53.4864612 29.674685,54.3210456 C28.891682,55.3000313 28.6520738,56.3877491 29.0171216,57.305341 C29.8990441,59.4333057 33.06951,59.3567955 35.0224427,58.5210178 C36.2065606,58.04989 37.2262545,57.3308002 37.8937629,56.4963485 C38.6767659,55.5173627 38.916374,54.429645 38.5511937,53.512053 C38.1861459,52.5943285 37.2647085,51.9685891 36.0233074,51.7951483 L36.0233074,51.7951483 Z M36.338365,55.2521627 C35.8897792,55.8129281 35.1419153,56.3298029 34.2862475,56.6701871 C33.4304471,57.0107038 32.5316844,57.1484752 31.8208158,57.0495556 C30.7592203,56.8944136 30.5650939,56.4071087 31.2302155,55.5649661 C31.6786686,55.0042008 32.4266652,54.487326 33.282333,54.1469418 C33.9562061,53.8788246 34.6565993,53.7360144 35.2712002,53.7360144 C35.7532012,53.7113508 36.5986588,53.9086596 36.7006282,54.2481156 C36.7909288,54.4752594 36.6520966,54.859932 36.338365,55.2521627 L36.338365,55.2521627 Z" id="Shape" stroke="#262626" stroke-width="0.1" fill="#262626" fill-rule="nonzero"></path>
                                <path d="M67.8911962,17.9584148 C67.8911962,15.5073039 67.3382543,13.1602841 66.2477519,10.982727 C66.0943337,10.676421 66.0591947,10.3233072 66.1488323,9.98875745 L67.4964461,4.95923973 C67.6648481,4.33045056 67.4906117,3.6801802 67.0302245,3.21992562 C66.5699699,2.75953845 65.9195669,2.58569986 65.2909104,2.75383665 L60.2613927,4.10145037 C59.9268429,4.19122057 59.5738617,4.15608157 59.2672905,4.00253078 C57.0896008,2.91202844 54.7427136,2.35908647 52.2916027,2.35908647 L39.0188738,2.35908647 C37.8470877,1.8731075 36.6151012,1.51522012 35.3420086,1.30160153 L28.6608254,0.18046859 C26.5185399,-0.17914259 24.3115457,0.623617765 22.9006817,2.27528327 C22.8772115,2.30273147 22.8551999,2.33097527 22.8330557,2.35908647 L15.5994609,2.35908647 C13.1484827,2.35908647 10.8014628,2.91202844 8.62377312,4.00253078 C8.31733454,4.15594897 7.96422076,4.19122057 7.62967098,4.10145037 L2.60015326,2.75396925 C1.97176189,2.58556726 1.32122633,2.75967105 0.860839152,3.21992562 C0.400451978,3.6801802 0.226215587,4.33045056 0.394750178,4.95923973 L1.7423639,9.98862485 C1.8320015,10.3233072 1.7968625,10.676421 1.64344431,10.9828596 C0.552941969,13.1604167 3.76871846e-15,15.5073039 3.76871846e-15,17.9584148 L3.76871846e-15,33.7115591 C3.76871846e-15,39.0792068 2.71657605,43.9864674 7.1765768,46.8429364 C6.22663046,47.5731646 5.3419233,48.3991299 4.53982595,49.3160589 C4.17769537,49.730036 4.21972957,50.359223 4.63370674,50.7213536 C4.82266173,50.8865732 5.05630292,50.9677244 5.28901591,50.9677244 C5.56628249,50.9677244 5.84209048,50.8526276 6.03900147,50.6274728 C9.15324489,47.0670304 13.6499758,45.0251231 18.3761048,45.0251231 L21.922359,45.0251231 C24.426112,45.0251231 26.5790055,43.2936324 27.1567437,40.9110757 C30.3188557,40.4595728 33.064869,38.2720707 34.1919689,35.1989333 C34.3228451,34.8421067 34.5765089,34.5416351 34.9061525,34.3529453 C35.3835124,34.0796567 35.5488646,33.4711553 35.2754434,32.993928 C35.0020223,32.516568 34.3935209,32.3513484 33.9164261,32.624637 C33.1803636,33.0461724 32.6142942,33.7167305 32.3221764,34.5131261 C31.3455775,37.1757339 28.806155,38.9817458 26.0031238,39.0069398 L20.0923465,39.0601124 C20.0865121,39.0601124 20.0806777,39.0601124 20.0748433,39.0601124 C19.5740131,39.0601124 19.1030179,38.8665164 18.7468544,38.5140657 C18.3864476,38.1573717 18.1876802,37.6814703 18.1868846,37.1741427 L18.1802546,32.1573546 L20.4002437,32.1573546 C20.9502684,32.1573546 21.3960696,31.7114208 21.3960696,31.1615287 C21.3960696,30.6115039 20.9501358,30.1657027 20.4002437,30.1657027 L18.1776026,30.1657027 L18.1756136,28.670903 C18.1746854,28.032434 17.8299254,27.4387839 17.2756574,27.1213395 L12.5704793,24.4283662 C12.4626755,24.3667073 12.4389401,24.2684507 12.4344317,24.2152781 C12.4288625,24.1504367 12.4411943,24.0573515 12.5320253,23.9821673 L17.3054924,20.0284333 C17.8495502,19.5777259 18.161558,18.9139304 18.1614254,18.2069072 L18.1614254,18.0060182 C18.1614254,13.4628773 20.2741411,9.25282749 23.8921319,6.49899084 L32.7504744,11.0140206 C34.3189997,11.8134659 35.1082349,13.5625924 34.6697267,15.2675632 L33.3180024,20.5242247 C32.8459464,20.9515944 32.4877938,21.4939284 32.2790814,22.113966 L31.97556,23.0155133 C31.8002628,23.5361009 32.0801814,24.1001813 32.600769,24.2753459 C33.121224,24.4503778 33.6853043,24.1705919 33.8606015,23.6501369 L34.1641229,22.7485895 C34.3160825,22.2970866 34.6348529,21.9317736 35.0616923,21.720144 C35.4882664,21.5083818 35.9719912,21.4753644 36.4236268,21.6274566 C37.9112661,22.1282868 38.7140265,23.7461393 38.2131963,25.2337786 L38.0618997,25.6830274 C37.3332627,27.8471919 34.9800107,29.015 32.815581,28.286363 C32.5909566,28.2444614 32.3703102,28.0661144 32.4580914,27.8162961 C32.6333886,27.2958411 32.35347,26.7317607 31.833015,26.5564635 C31.3122949,26.3812989 30.7483471,26.6609523 30.5731825,27.1815399 C30.1647745,28.3941668 30.8191555,29.7128738 32.0320476,30.1212817 C32.716794,30.3664591 33.4370771,30.4949485 34.1322989,30.4924291 C35.0597033,30.4924291 35.9648308,30.2790757 36.7835032,29.8868449 L40.2246056,31.0527967 L42.8825724,41.0180839 C43.5077814,43.3774356 45.6492713,45.0252557 48.0901719,45.0252557 L49.5104505,45.0252557 C58.5447532,45.0252557 65.8947708,52.3751407 65.8947708,61.409576 L65.8947708,63.2470141 L1.99178449,63.2470141 L1.99178449,61.409576 C1.99178449,58.9889631 2.50693546,56.6587835 3.5229166,54.4838784 C3.75576219,53.9855676 3.5405524,53.3928456 3.04210903,53.1601327 C2.54393086,52.9272871 1.95107629,53.1426295 1.7183633,53.6409402 C0.578135968,56.0814431 3.76871846e-15,58.6952541 3.76871846e-15,61.4093108 L3.76871846e-15,63.5740057 C3.76871846e-15,64.4918628 0.746670559,65.2385334 1.66452771,65.2385334 L66.2217623,65.2385334 C67.1396195,65.2385334 67.88629,64.4918628 67.88629,63.5740057 L67.88629,61.4093108 C67.88629,55.4871299 65.0694684,50.2112414 60.706133,46.8485056 C65.1711726,43.9928322 67.8911962,39.0829196 67.8911962,33.7116917 L67.8911962,17.9584148 Z M16.0350519,18.4945166 L11.2615848,22.4482506 C10.689681,22.9218977 10.3864248,23.6462915 10.4500728,24.3861994 C10.5138534,25.1259748 10.9365822,25.787914 11.5811508,26.1569398 L16.1839617,28.7914364 L16.1952327,37.1767947 C16.1966913,38.2191633 16.6053645,39.196823 17.3458028,39.9297032 C18.0777548,40.6542295 19.0454695,41.0517643 20.0744455,41.0517643 C20.0863795,41.0517643 20.0983135,41.0517643 20.1103801,41.0516317 L25.0293094,41.0073433 C24.4985116,42.2085667 23.2945037,43.0333386 21.9224916,43.0333386 L18.3762374,43.0333386 C15.0390934,43.0333386 11.8043165,43.9417812 8.9939923,45.6105521 C4.66446994,43.2054534 1.99191709,38.6845893 1.99191709,33.7115591 L1.99191709,17.9584148 C1.99191709,15.8197095 2.47391806,13.772896 3.42452741,11.8747271 C3.79647039,11.1320346 3.88239518,10.279284 3.6665224,9.47320868 L2.40456827,4.76338954 L7.11438741,6.02534367 C7.92019756,6.24108385 8.77308071,6.15542426 9.51577327,5.78348128 C11.4140748,4.83287193 13.4608883,4.35087096 15.5994609,4.35087096 L22.2782574,4.35087096 C22.286346,4.41518196 22.2958932,4.47936035 22.3086228,4.54353875 C22.3456182,4.72984174 22.4022384,4.90885173 22.4749032,5.07924272 C18.4648142,8.21350875 16.1697735,12.9078137 16.1697735,18.0058856 C16.1738841,18.1711052 16.1862159,18.3853868 16.0350519,18.4945166 Z M38.7145569,28.4380574 C39.2494652,27.8391033 39.6747134,27.1254501 39.9468086,26.3175183 L40.0981052,25.8682696 C40.9489993,23.3413115 39.5852084,20.5931767 37.0581177,19.7422825 C36.5893768,19.5844885 36.1041934,19.5213709 35.6248444,19.5505429 L36.5986588,15.7634871 C37.2712059,13.1483501 36.0607006,10.4654544 33.6549389,9.23930229 L24.627664,4.63821514 C24.3667073,4.50521735 24.2866169,4.27847136 24.2620859,4.15515337 C24.2375549,4.03183538 24.2248253,3.79169679 24.4151062,3.5689288 C25.374202,2.44607206 26.8748361,1.90042309 28.3311818,2.14480488 L35.0123651,3.26593782 C39.2400506,3.97534778 42.960939,6.47141004 45.2209733,10.114197 C47.8162204,14.2970638 48.1817985,19.4842429 46.1987656,23.9898581 L44.033673,28.9094504 C43.7430138,29.569931 43.0084098,29.8930771 42.3252547,29.6615576 L38.7145569,28.4380574 Z M49.5100527,43.0333386 L48.0897741,43.0333386 C46.551349,43.0333386 45.2016137,41.9946829 44.8073939,40.507574 L42.4770816,31.715001 C42.579051,31.724283 42.6807552,31.7299848 42.781929,31.7299848 C44.0841936,31.7299848 45.3017267,30.9723085 45.8565251,29.7115478 L48.0216177,24.7919554 C50.2691876,19.6848667 49.8548126,13.8052504 46.9130818,9.0640051 C45.7615835,7.208003 44.2746071,5.61574229 42.5521332,4.35087096 L52.2916027,4.35087096 C54.4301754,4.35087096 56.4771215,4.83287193 58.3752904,5.78348128 C59.1179829,6.15542426 59.9707335,6.24121645 60.7766762,6.02534367 L65.4864954,4.76338954 L64.2245412,9.47334128 C64.0086685,10.2794166 64.0945933,11.1321672 64.4665362,11.8747271 C65.4171456,13.772896 65.8991466,15.8198421 65.8991466,17.9584148 L65.8991466,33.7115591 C65.8994118,38.6872413 63.2242069,43.2099618 58.8908391,45.6141323 C56.1431021,43.975992 52.9348453,43.0333386 49.5100527,43.0333386 Z" id="Shape" stroke="#E2292F" stroke-width="0.3" fill="#E2292F" fill-rule="nonzero"></path>
                                <rect id="Rectangle" fill="#FFEFF0" x="31" y="62" width="6" height="4"></rect>
                                <path d="M35.8152099,61.041594 C34.9573849,60.9203412 33.9561592,61.0662575 32.9962122,61.4522891 C32.0362653,61.8383208 31.209507,62.4274184 30.6684753,63.1112584 C30.0337063,63.9134177 29.8394595,64.8046696 30.1353983,65.5565241 C30.8503599,67.3001313 33.4206098,67.2374406 35.0038236,66.5526228 C35.9637705,66.1665911 36.7904214,65.5773848 37.3315606,64.8936535 C37.9663295,64.0914942 38.1605763,63.2002423 37.86453,62.4483878 C37.5685911,61.6964246 36.8215955,61.1837076 35.8152099,61.041594 L35.8152099,61.041594 Z M36.0706224,63.8741952 C35.7069605,64.333674 35.1006783,64.7571897 34.407001,65.036093 C33.7132163,65.3151049 32.9846026,65.4279918 32.4083119,65.3469392 C31.5476921,65.2198193 31.3903167,64.8205324 31.9295209,64.1304994 C32.2930753,63.6710206 32.8994651,63.2475049 33.5931423,62.9686016 C34.1394413,62.7489123 34.7072397,62.6318968 35.2054877,62.6318968 C35.5962388,62.611688 36.2816387,62.7733584 36.3643038,63.0515012 C36.4375092,63.2376178 36.32496,63.55281 36.0706224,63.8741952 L36.0706224,63.8741952 Z" id="Shape" stroke="#262626" stroke-width="0.1" fill="#262626" fill-rule="nonzero" transform="translate(34.000000, 64.000000) rotate(-330.000000) translate(-34.000000, -64.000000) "></path>
                            </g>
                        </g>
                    </g>
                </g>
            </g>
        </g>
    </g>
</svg>