<?xml version="1.0" encoding="UTF-8"?>
<svg width="82px" height="77px" viewBox="0 0 82 77" version="1.1" xmlns="http://www.w3.org/2000/svg" xmlns:xlink="http://www.w3.org/1999/xlink">
    <!-- Generator: Sketch 63.1 (92452) - https://sketch.com -->
    <title>hospitals</title>
    <desc>Created with Sketch.</desc>
    <g id="Page-1" stroke="none" stroke-width="1" fill="none" fill-rule="evenodd">
        <g id="slashq_desktop" transform="translate(-797.000000, -619.000000)" fill-rule="nonzero">
            <g id="Group-41" transform="translate(289.000000, 615.000000)">
                <g id="Group-5" transform="translate(494.000000, 0.000000)">
                    <g id="hospitals" transform="translate(12.000000, 0.000000)">
                        <path d="M72.9251314,9.29088819 C79.5082634,15.2108366 82.6946934,24.7962874 81.3683621,32.8895868 C80.0420309,40.9828862 74.2191131,47.5515961 69.8680996,54.8826008 C65.5170861,62.2136054 62.6703263,70.3231239 56.2974663,75.6916251 C49.9084316,81.0601263 39.9771219,83.7038293 31.9544352,80.8817169 C23.9155738,78.0596044 17.7853354,69.7878957 12.8358553,60.9323015 C7.87020042,52.0767074 4.11765343,42.669666 4.99109109,33.4572531 C5.88070353,24.2448402 11.4286502,15.2270557 19.0954918,9.50173567 C26.7623335,3.77641566 36.5804198,1.34356013 46.4632052,1.23002688 C56.3621654,1.13271266 66.3419994,3.37093974 72.9251314,9.29088819 Z" id="Path" fill="#FFCCCD" opacity="0.300000012" transform="translate(43.264370, 41.626995) rotate(-94.000000) translate(-43.264370, -41.626995) "></path>
                        <g id="hospital" transform="translate(8.799999, 4.800000)">
                            <path d="M67.9680002,20.7360001 L52.9920002,20.7360001 L52.9920002,1.152 C52.9920002,0.514944002 52.4759042,0 51.8400002,0 L17.2800001,0 C16.6440961,0 16.1280001,0.514944002 16.1280001,1.152 L16.1280001,20.7360001 L1.152,20.7360001 C0.516096002,20.7360001 0,21.2509441 0,21.8880001 L0,67.9680002 C0,68.6050562 0.516096002,69.1200002 1.152,69.1200002 L67.9680002,69.1200002 C68.6039042,69.1200002 69.1200002,68.6050562 69.1200002,67.9680002 L69.1200002,21.8880001 C69.1200002,21.2509441 68.6039042,20.7360001 67.9680002,20.7360001 Z M2.30400001,23.0400001 L16.1280001,23.0400001 L16.1280001,66.8160002 L2.30400001,66.8160002 L2.30400001,23.0400001 Z M38.0160001,55.2960002 L38.0160001,66.8160002 L31.1040001,66.8160002 L31.1040001,55.2960002 L38.0160001,55.2960002 Z M50.6880002,66.8160002 L40.3200001,66.8160002 L40.3200001,55.2960002 L42.6240001,55.2960002 L42.6240001,52.9920002 L26.4960001,52.9920002 L26.4960001,55.2960002 L28.8000001,55.2960002 L28.8000001,66.8160002 L18.4320001,66.8160002 L18.4320001,2.30400001 L50.6880002,2.30400001 L50.6880002,66.8160002 Z M66.8160002,66.8160002 L52.9920002,66.8160002 L52.9920002,23.0400001 L66.8160002,23.0400001 L66.8160002,66.8160002 Z" id="Shape" fill="#E2292F"></path>
                            <path d="M56.4480002,34.5600001 L63.3600002,34.5600001 C63.9959042,34.5600001 64.5120002,34.0450561 64.5120002,33.4080001 L64.5120002,26.4960001 C64.5120002,25.8589441 63.9959042,25.3440001 63.3600002,25.3440001 L56.4480002,25.3440001 C55.8120962,25.3440001 55.2960002,25.8589441 55.2960002,26.4960001 L55.2960002,33.4080001 C55.2960002,34.0450561 55.8120962,34.5600001 56.4480002,34.5600001 Z M57.6000002,27.6480001 L62.2080002,27.6480001 L62.2080002,32.2560001 L57.6000002,32.2560001 L57.6000002,27.6480001 Z" id="Shape" fill="#262626"></path>
                            <path d="M56.4480002,46.0800002 L63.3600002,46.0800002 C63.9959042,46.0800002 64.5120002,45.5650562 64.5120002,44.9280001 L64.5120002,38.0160001 C64.5120002,37.3789441 63.9959042,36.8640001 63.3600002,36.8640001 L56.4480002,36.8640001 C55.8120962,36.8640001 55.2960002,37.3789441 55.2960002,38.0160001 L55.2960002,44.9280001 C55.2960002,45.5650562 55.8120962,46.0800002 56.4480002,46.0800002 Z M57.6000002,39.1680001 L62.2080002,39.1680001 L62.2080002,43.7760001 L57.6000002,43.7760001 L57.6000002,39.1680001 Z" id="Shape" fill="#262626"></path>
                            <path d="M56.4480002,57.6000002 L63.3600002,57.6000002 C63.9959042,57.6000002 64.5120002,57.0850562 64.5120002,56.4480002 L64.5120002,49.5360002 C64.5120002,48.8989442 63.9959042,48.3840002 63.3600002,48.3840002 L56.4480002,48.3840002 C55.8120962,48.3840002 55.2960002,48.8989442 55.2960002,49.5360002 L55.2960002,56.4480002 C55.2960002,57.0850562 55.8120962,57.6000002 56.4480002,57.6000002 Z M57.6000002,50.6880002 L62.2080002,50.6880002 L62.2080002,55.2960002 L57.6000002,55.2960002 L57.6000002,50.6880002 Z" id="Shape" fill="#262626"></path>
                            <path d="M12.672,25.3440001 L5.76000002,25.3440001 C5.12409602,25.3440001 4.60800002,25.8589441 4.60800002,26.4960001 L4.60800002,33.4080001 C4.60800002,34.0450561 5.12409602,34.5600001 5.76000002,34.5600001 L12.672,34.5600001 C13.307904,34.5600001 13.824,34.0450561 13.824,33.4080001 L13.824,26.4960001 C13.824,25.8589441 13.307904,25.3440001 12.672,25.3440001 Z M11.52,32.2560001 L6.91200002,32.2560001 L6.91200002,27.6480001 L11.52,27.6480001 L11.52,32.2560001 Z" id="Shape" fill="#262626"></path>
                            <path d="M21.8880001,29.9520001 L26.4960001,29.9520001 C27.1319041,29.9520001 27.6480001,29.4370561 27.6480001,28.8000001 L27.6480001,24.1920001 C27.6480001,23.5549441 27.1319041,23.0400001 26.4960001,23.0400001 L21.8880001,23.0400001 C21.2520961,23.0400001 20.7360001,23.5549441 20.7360001,24.1920001 L20.7360001,28.8000001 C20.7360001,29.4370561 21.2520961,29.9520001 21.8880001,29.9520001 Z M23.0400001,25.3440001 L25.3440001,25.3440001 L25.3440001,27.6480001 L23.0400001,27.6480001 L23.0400001,25.3440001 Z" id="Shape" fill="#262626"></path>
                            <path d="M36.8640001,23.0400001 L32.2560001,23.0400001 C31.6200961,23.0400001 31.1040001,23.5549441 31.1040001,24.1920001 L31.1040001,28.8000001 C31.1040001,29.4370561 31.6200961,29.9520001 32.2560001,29.9520001 L36.8640001,29.9520001 C37.4999041,29.9520001 38.0160001,29.4370561 38.0160001,28.8000001 L38.0160001,24.1920001 C38.0160001,23.5549441 37.4999041,23.0400001 36.8640001,23.0400001 Z M35.7120001,27.6480001 L33.4080001,27.6480001 L33.4080001,25.3440001 L35.7120001,25.3440001 L35.7120001,27.6480001 Z" id="Shape" fill="#262626"></path>
                            <path d="M41.4720001,24.1920001 L41.4720001,28.8000001 C41.4720001,29.4370561 41.9880961,29.9520001 42.6240001,29.9520001 L47.2320002,29.9520001 C47.8679042,29.9520001 48.3840002,29.4370561 48.3840002,28.8000001 L48.3840002,24.1920001 C48.3840002,23.5549441 47.8679042,23.0400001 47.2320002,23.0400001 L42.6240001,23.0400001 C41.9880961,23.0400001 41.4720001,23.5549441 41.4720001,24.1920001 Z M43.7760001,25.3440001 L46.0800002,25.3440001 L46.0800002,27.6480001 L43.7760001,27.6480001 L43.7760001,25.3440001 Z" id="Shape" fill="#262626"></path>
                            <path d="M21.8880001,39.1680001 L26.4960001,39.1680001 C27.1319041,39.1680001 27.6480001,38.6530561 27.6480001,38.0160001 L27.6480001,33.4080001 C27.6480001,32.7709441 27.1319041,32.2560001 26.4960001,32.2560001 L21.8880001,32.2560001 C21.2520961,32.2560001 20.7360001,32.7709441 20.7360001,33.4080001 L20.7360001,38.0160001 C20.7360001,38.6530561 21.2520961,39.1680001 21.8880001,39.1680001 Z M23.0400001,34.5600001 L25.3440001,34.5600001 L25.3440001,36.8640001 L23.0400001,36.8640001 L23.0400001,34.5600001 Z" id="Shape" fill="#262626"></path>
                            <path d="M36.8640001,32.2560001 L32.2560001,32.2560001 C31.6200961,32.2560001 31.1040001,32.7709441 31.1040001,33.4080001 L31.1040001,38.0160001 C31.1040001,38.6530561 31.6200961,39.1680001 32.2560001,39.1680001 L36.8640001,39.1680001 C37.4999041,39.1680001 38.0160001,38.6530561 38.0160001,38.0160001 L38.0160001,33.4080001 C38.0160001,32.7709441 37.4999041,32.2560001 36.8640001,32.2560001 Z M35.7120001,36.8640001 L33.4080001,36.8640001 L33.4080001,34.5600001 L35.7120001,34.5600001 L35.7120001,36.8640001 Z" id="Shape" fill="#262626"></path>
                            <path d="M47.2320002,32.2560001 L42.6240001,32.2560001 C41.9880961,32.2560001 41.4720001,32.7709441 41.4720001,33.4080001 L41.4720001,38.0160001 C41.4720001,38.6530561 41.9880961,39.1680001 42.6240001,39.1680001 L47.2320002,39.1680001 C47.8679042,39.1680001 48.3840002,38.6530561 48.3840002,38.0160001 L48.3840002,33.4080001 C48.3840002,32.7709441 47.8679042,32.2560001 47.2320002,32.2560001 Z M46.0800002,36.8640001 L43.7760001,36.8640001 L43.7760001,34.5600001 L46.0800002,34.5600001 L46.0800002,36.8640001 Z" id="Shape" fill="#262626"></path>
                            <path d="M21.8880001,48.3840002 L26.4960001,48.3840002 C27.1319041,48.3840002 27.6480001,47.8690562 27.6480001,47.2320002 L27.6480001,42.6240001 C27.6480001,41.9869441 27.1319041,41.4720001 26.4960001,41.4720001 L21.8880001,41.4720001 C21.2520961,41.4720001 20.7360001,41.9869441 20.7360001,42.6240001 L20.7360001,47.2320002 C20.7360001,47.8690562 21.2520961,48.3840002 21.8880001,48.3840002 Z M23.0400001,43.7760001 L25.3440001,43.7760001 L25.3440001,46.0800002 L23.0400001,46.0800002 L23.0400001,43.7760001 Z" id="Shape" fill="#262626"></path>
                            <path d="M36.8640001,41.4720001 L32.2560001,41.4720001 C31.6200961,41.4720001 31.1040001,41.9869441 31.1040001,42.6240001 L31.1040001,47.2320002 C31.1040001,47.8690562 31.6200961,48.3840002 32.2560001,48.3840002 L36.8640001,48.3840002 C37.4999041,48.3840002 38.0160001,47.8690562 38.0160001,47.2320002 L38.0160001,42.6240001 C38.0160001,41.9869441 37.4999041,41.4720001 36.8640001,41.4720001 Z M35.7120001,46.0800002 L33.4080001,46.0800002 L33.4080001,43.7760001 L35.7120001,43.7760001 L35.7120001,46.0800002 Z" id="Shape" fill="#262626"></path>
                            <path d="M47.2320002,41.4720001 L42.6240001,41.4720001 C41.9880961,41.4720001 41.4720001,41.9869441 41.4720001,42.6240001 L41.4720001,47.2320002 C41.4720001,47.8690562 41.9880961,48.3840002 42.6240001,48.3840002 L47.2320002,48.3840002 C47.8679042,48.3840002 48.3840002,47.8690562 48.3840002,47.2320002 L48.3840002,42.6240001 C48.3840002,41.9869441 47.8679042,41.4720001 47.2320002,41.4720001 Z M46.0800002,46.0800002 L43.7760001,46.0800002 L43.7760001,43.7760001 L46.0800002,43.7760001 L46.0800002,46.0800002 Z" id="Shape" fill="#262626"></path>
                            <path d="M12.672,36.8640001 L5.76000002,36.8640001 C5.12409602,36.8640001 4.60800002,37.3789441 4.60800002,38.0160001 L4.60800002,44.9280001 C4.60800002,45.5650562 5.12409602,46.0800002 5.76000002,46.0800002 L12.672,46.0800002 C13.307904,46.0800002 13.824,45.5650562 13.824,44.9280001 L13.824,38.0160001 C13.824,37.3789441 13.307904,36.8640001 12.672,36.8640001 Z M11.52,43.7760001 L6.91200002,43.7760001 L6.91200002,39.1680001 L11.52,39.1680001 L11.52,43.7760001 Z" id="Shape" fill="#262626"></path>
                            <path d="M12.672,48.3840002 L5.76000002,48.3840002 C5.12409602,48.3840002 4.60800002,48.8989442 4.60800002,49.5360002 L4.60800002,56.4480002 C4.60800002,57.0850562 5.12409602,57.6000002 5.76000002,57.6000002 L12.672,57.6000002 C13.307904,57.6000002 13.824,57.0850562 13.824,56.4480002 L13.824,49.5360002 C13.824,48.8989442 13.307904,48.3840002 12.672,48.3840002 Z M11.52,55.2960002 L6.91200002,55.2960002 L6.91200002,50.6880002 L11.52,50.6880002 L11.52,55.2960002 Z" id="Shape" fill="#262626"></path>
                            <path d="M27.6480001,16.1280001 L31.1040001,16.1280001 L31.1040001,19.5840001 C31.1040001,20.2210561 31.6200961,20.7360001 32.2560001,20.7360001 L36.8640001,20.7360001 C37.4999041,20.7360001 38.0160001,20.2210561 38.0160001,19.5840001 L38.0160001,16.1280001 L41.4720001,16.1280001 C42.1079041,16.1280001 42.6240001,15.6130561 42.6240001,14.976 L42.6240001,10.368 C42.6240001,9.73094403 42.1079041,9.21600003 41.4720001,9.21600003 L38.0160001,9.21600003 L38.0160001,5.76000002 C38.0160001,5.12294402 37.4999041,4.60800002 36.8640001,4.60800002 L32.2560001,4.60800002 C31.6200961,4.60800002 31.1040001,5.12294402 31.1040001,5.76000002 L31.1040001,9.21600003 L27.6480001,9.21600003 C27.0120961,9.21600003 26.4960001,9.73094403 26.4960001,10.368 L26.4960001,14.976 C26.4960001,15.6130561 27.0120961,16.1280001 27.6480001,16.1280001 Z M28.8000001,11.52 L32.2560001,11.52 C32.8919041,11.52 33.4080001,11.005056 33.4080001,10.368 L33.4080001,6.91200002 L35.7120001,6.91200002 L35.7120001,10.368 C35.7120001,11.005056 36.2280961,11.52 36.8640001,11.52 L40.3200001,11.52 L40.3200001,13.824 L36.8640001,13.824 C36.2280961,13.824 35.7120001,14.338944 35.7120001,14.976 L35.7120001,18.4320001 L33.4080001,18.4320001 L33.4080001,14.976 C33.4080001,14.338944 32.8919041,13.824 32.2560001,13.824 L28.8000001,13.824 L28.8000001,11.52 Z" id="Shape" fill="#E2292F"></path>
                            <polygon id="Path" fill="#262626" points="46.0800002 62.2080002 48.3840002 62.2080002 48.3840002 64.5120002 46.0800002 64.5120002"></polygon>
                            <polygon id="Path" fill="#262626" points="46.0800002 57.6000002 48.3840002 57.6000002 48.3840002 59.9040002 46.0800002 59.9040002"></polygon>
                            <polygon id="Path" fill="#262626" points="46.0800002 52.9920002 48.3840002 52.9920002 48.3840002 55.2960002 46.0800002 55.2960002"></polygon>
                        </g>
                    </g>
                </g>
            </g>
        </g>
    </g>
</svg>