<?xml version="1.0" encoding="UTF-8"?>
<svg width="82px" height="78px" viewBox="0 0 82 78" version="1.1" xmlns="http://www.w3.org/2000/svg" xmlns:xlink="http://www.w3.org/1999/xlink">
    <!-- Generator: Sketch 63.1 (92452) - https://sketch.com -->
    <title>bank</title>
    <desc>Created with Sketch.</desc>
    <g id="Page-1" stroke="none" stroke-width="1" fill="none" fill-rule="evenodd">
        <g id="slashq_desktop" transform="translate(-1039.000000, -1011.000000)" fill-rule="nonzero">
            <g id="Group-43" transform="translate(254.000000, 1006.000000)">
                <g id="Group-5" transform="translate(783.000000, 2.000000)">
                    <g id="bank">
                        <path d="M72.9251314,9.29088819 C79.5082634,15.2108366 82.6946934,24.7962874 81.3683621,32.8895868 C80.0420309,40.9828862 74.2191131,47.5515961 69.8680996,54.8826008 C65.5170861,62.2136054 62.6703263,70.3231239 56.2974663,75.6916251 C49.9084316,81.0601263 39.9771219,83.7038293 31.9544352,80.8817169 C23.9155738,78.0596044 17.7853354,69.7878957 12.8358553,60.9323015 C7.87020042,52.0767074 4.11765343,42.669666 4.99109109,33.4572531 C5.88070353,24.2448402 11.4286502,15.2270557 19.0954918,9.50173567 C26.7623335,3.77641566 36.5804198,1.34356013 46.4632052,1.23002688 C56.3621654,1.13271266 66.3419994,3.37093974 72.9251314,9.29088819 Z" id="Path" fill="#FFCCCD" opacity="0.300000012" transform="translate(43.264370, 41.626995) rotate(-94.000000) translate(-43.264370, -41.626995) "></path>
                        <g transform="translate(8.000000, 3.200000)">
                            <path d="M35.2558988,42.3039353 C33.9579203,42.3039353 32.9058189,41.2518339 32.9058189,39.9538554 C32.9058189,38.6558769 33.9579203,37.6037755 35.2558988,37.6037755 C36.5538773,37.6037755 37.6059787,38.6558769 37.6059787,39.9538554 L39.9560586,39.9538554 C39.9479802,37.8171921 38.4998904,35.9547538 36.4309388,35.4205513 L36.4309388,34.0786556 L34.0808588,34.0786556 L34.0808588,35.4205513 C31.5720017,36.0662357 30.0616347,38.6235633 30.7073191,41.1324205 C31.2413748,43.2072473 33.1133603,44.6566591 35.2558988,44.6540152 C36.5538773,44.6540152 37.6059787,45.7061166 37.6059787,47.0040951 C37.6059787,48.3020737 36.5538773,49.3541751 35.2558988,49.3541751 C33.9579203,49.3541751 32.9058189,48.3020737 32.9058189,47.0040951 L30.555739,47.0040951 C30.5638174,49.1407584 32.0120541,51.0031968 34.0808588,51.5373993 L34.0808588,52.8792949 L36.4309388,52.8792949 L36.4309388,51.5373993 C38.9397959,50.8917148 40.4501629,48.3343873 39.8044785,45.8255301 C39.2704228,43.7505564 37.3984373,42.3012915 35.2558988,42.3039353 Z" id="Path" fill="#262626"></path>
                            <path d="M35.2558988,28.2034559 C26.8194057,28.2034559 19.9803794,35.0424822 19.9803794,43.4789753 C19.9803794,51.9154684 26.8194057,58.7544947 35.2558988,58.7544947 C43.6923919,58.7544947 50.5314182,51.9154684 50.5314182,43.4789753 C50.5217241,35.0465948 43.6882793,28.21315 35.2558988,28.2034559 Z M35.2558988,56.4044148 C28.1173842,56.4044148 22.3304593,50.6174899 22.3304593,43.4789753 C22.3304593,36.3404607 28.1173842,30.5535358 35.2558988,30.5535358 C42.3944134,30.5535358 48.1813383,36.3404607 48.1813383,43.4789753 C48.1729661,50.6139648 42.3908883,56.3960426 35.2558988,56.4044148 Z" id="Shape" fill="#262626"></path>
                            <path d="M69.3320575,25.853376 C69.9809733,25.853376 70.5070974,25.3272518 70.5070974,24.678336 L70.5070974,19.9781762 C70.5070974,19.9629007 70.4988722,19.9511503 70.4988722,19.9358748 C70.4943189,19.8075016 70.4686149,19.6808911 70.4224946,19.561037 C70.4224946,19.5469365 70.4224946,19.530486 70.4119192,19.5163855 C70.3547829,19.3881593 70.2753208,19.2710959 70.1769112,19.1709237 C70.1421007,19.1400789 70.1055275,19.1109967 70.0676325,19.0839708 C70.0150495,19.0341785 69.95806,18.9893801 69.8972517,18.9500162 L35.821093,0.149376954 C35.4681404,-0.0468547182 35.038957,-0.0468547182 34.6860044,0.149376954 L0.609845736,18.9500162 C0.549037419,18.9893801 0.492047981,19.0341785 0.439464943,19.0839708 C0.401569905,19.1109967 0.364996786,19.1400789 0.330186227,19.1709237 C0.231776631,19.2710959 0.152314554,19.3881593 0.0951782363,19.5163855 C0.0951782363,19.530486 0.0951782363,19.5469365 0.0846028767,19.561037 C0.0384825585,19.6808911 0.0127785595,19.8075016 0.00822527968,19.9358748 C0.00822527968,19.9511503 -8.34916104e-15,19.9629007 -8.34916104e-15,19.9781762 L-8.34916104e-15,24.678336 C-8.34916104e-15,25.3272518 0.52612414,25.853376 1.17503995,25.853376 L4.70485998,25.853376 L4.70485998,61.1045746 L1.17974011,61.1045746 C0.5308243,61.1045746 0.00470015982,61.6306987 0.00470015982,62.2796146 L0.00470015982,69.3298543 C0.00470015982,69.9787701 0.5308243,70.5048942 1.17974011,70.5048942 L69.3320575,70.5048942 C69.9809733,70.5048942 70.5070974,69.9787701 70.5070974,69.3298543 L70.5070974,62.2796146 C70.5070974,61.6306987 69.9809733,61.1045746 69.3320575,61.1045746 L65.8069376,61.1045746 L65.8069376,25.853376 L69.3320575,25.853376 Z M35.2558988,2.51943254 L64.7693773,18.8031362 L5.74242026,18.8031362 L35.2558988,2.51943254 Z M68.1570175,63.4546545 L68.1570175,68.1548143 L2.35478007,68.1548143 L2.35478007,63.4546545 L68.1570175,63.4546545 Z M7.05493989,61.1045746 L7.05493989,25.853376 L11.7550997,25.853376 L11.7550997,61.1045746 L7.05493989,61.1045746 Z M14.1051796,61.1045746 L14.1051796,25.853376 L56.406618,25.853376 L56.406618,61.1045746 L14.1051796,61.1045746 Z M58.7566979,61.1045746 L58.7566979,25.853376 L63.4568577,25.853376 L63.4568577,61.1045746 L58.7566979,61.1045746 Z M2.35478007,23.5032961 L2.35478007,21.1532161 L68.1570175,21.1532161 L68.1570175,23.5032961 L2.35478007,23.5032961 Z" id="Shape" fill="#E2292F"></path>
                        </g>
                    </g>
                </g>
            </g>
        </g>
    </g>
</svg>