<?xml version="1.0" encoding="UTF-8"?>
<svg width="82px" height="77px" viewBox="0 0 82 77" version="1.1" xmlns="http://www.w3.org/2000/svg" xmlns:xlink="http://www.w3.org/1999/xlink">
    <!-- Generator: Sketch 63.1 (92452) - https://sketch.com -->
    <title>fitness-clubs</title>
    <desc>Created with Sketch.</desc>
    <g id="Page-1" stroke="none" stroke-width="1" fill="none" fill-rule="evenodd">
        <g id="slashq_desktop" transform="translate(-1039.000000, -815.000000)" fill-rule="nonzero">
            <g id="Group-42" transform="translate(304.000000, 811.000000)">
                <g id="Group-5" transform="translate(698.000000, 0.000000)">
                    <g id="fitness-clubs" transform="translate(35.000000, 0.000000)">
                        <path d="M72.9251314,9.29088819 C79.5082634,15.2108366 82.6946934,24.7962874 81.3683621,32.8895868 C80.0420309,40.9828862 74.2191131,47.5515961 69.8680996,54.8826008 C65.5170861,62.2136054 62.6703263,70.3231239 56.2974663,75.6916251 C49.9084316,81.0601263 39.9771219,83.7038293 31.9544352,80.8817169 C23.9155738,78.0596044 17.7853354,69.7878957 12.8358553,60.9323015 C7.87020042,52.0767074 4.11765343,42.669666 4.99109109,33.4572531 C5.88070353,24.2448402 11.4286502,15.2270557 19.0954918,9.50173567 C26.7623335,3.77641566 36.5804198,1.34356013 46.4632052,1.23002688 C56.3621654,1.13271266 66.3419994,3.37093974 72.9251314,9.29088819 Z" id="Path" fill="#FFCCCD" opacity="0.300000012" transform="translate(43.264370, 41.626995) rotate(-94.000000) translate(-43.264370, -41.626995) "></path>
                        <g id="gym" transform="translate(6.400000, 12.399999)">
                            <path d="M44.5445573,37.6470377 L28.2927183,37.6470377 C27.5459891,37.6470377 26.9383984,37.0394471 26.9383984,36.2927178 C26.9383984,35.5459886 27.5459891,34.9383979 28.2927183,34.9383979 L44.5445573,34.9383979 C45.2912865,34.9383979 45.8988772,35.5459886 45.8988772,36.2927178 C45.8988772,37.0394471 45.2912865,37.6470377 44.5445573,37.6470377 Z M38.7708777,39.7854376 L38.7708777,51.9030369 L34.0663979,51.9030369 L34.0663979,39.7854376 L38.7708777,39.7854376 Z M29.7895982,51.9030369 L29.7895982,39.7854376 L31.9279981,39.7854376 L31.9279981,51.9030369 L29.7895982,51.9030369 Z M40.9092775,51.9030369 L40.9092775,39.7854376 L43.0476774,39.7854376 L43.0476774,51.9030369 L40.9092775,51.9030369 Z M45.1860773,51.9030369 L45.1860773,39.7254199 C46.8065567,39.4231927 48.0372771,37.9995886 48.0372771,36.2927178 C48.0372771,34.3667323 46.4705428,32.799998 44.5445573,32.799998 L28.2927183,32.799998 C26.3667328,32.799998 24.7999985,34.3667323 24.7999985,36.2927178 C24.7999985,37.999446 26.0307189,39.4231927 27.6511983,39.7254199 L27.6511983,51.9030369 L45.1860773,51.9030369 Z" id="Shape" fill="#262626"></path>
                            <path d="M60.2315963,20.6711987 L66.5042359,20.6711987 C67.7226961,20.6711987 68.7139157,19.6799791 68.7139157,18.4615189 L68.7139157,17.5348789 L70.7810356,17.5348789 C71.9994959,17.5348789 72.9907155,16.5436593 72.9907155,15.325199 L72.9907155,5.34599967 C72.9907155,4.12753942 71.9994959,3.13631981 70.7810356,3.13631981 L68.7139157,3.13631981 L68.7139157,2.20967986 C68.7139157,0.991219618 67.7226961,0 66.5042359,0 L60.2315963,0 C59.013136,0 58.0219164,0.991219618 58.0219164,2.20967986 L58.0219164,7.12799956 L56.3824765,7.12799956 L56.3824765,6.77159958 C56.3824765,5.00300033 54.9434759,3.56399978 53.1748767,3.56399978 C51.4062774,3.56399978 49.9672769,5.00300033 49.9672769,6.77159958 L49.9672769,7.12799956 L31.8613027,7.12799956 C31.2706766,7.12799956 30.7921027,7.60657345 30.7921027,8.19719949 C30.7921027,8.78782553 31.2706766,9.26639942 31.8613027,9.26639942 L49.9672769,9.26639942 L49.9672769,11.4047993 L23.0234386,11.4047993 L23.0234386,9.26639942 L27.4054476,9.26639942 C27.9960736,9.26639942 28.4746475,8.78782553 28.4746475,8.19719949 C28.4746475,7.60657345 27.9960736,7.12799956 27.4054476,7.12799956 L23.0234386,7.12799956 L23.0234386,6.77159958 C23.0234386,5.00300033 21.584438,3.56399978 19.8158388,3.56399978 C18.0472395,3.56399978 16.608239,5.00300033 16.608239,6.77159958 L16.608239,7.12799956 L14.9687991,7.12799956 L14.9687991,2.49479985 C14.9687991,1.11923849 13.8495606,0 12.4739992,0 L6.77159958,0 C5.39603823,0 4.27679973,1.11923849 4.27679973,2.49479985 L4.27679973,3.13631981 L2.49479985,3.13631981 C1.11923849,3.13631981 0,4.2555583 0,5.63111965 L0,15.0400791 C0,16.4156404 1.11923849,17.5348789 2.49479985,17.5348789 L4.27679973,17.5348789 L4.27679973,18.1763989 C4.27679973,19.5519602 5.39603823,20.6711987 6.77159958,20.6711987 L12.4739992,20.6711987 C13.8495606,20.6711987 14.9687991,19.5519602 14.9687991,18.1763989 L14.9687991,13.5431992 L16.608239,13.5431992 L16.608239,51.5527968 L13.7596052,51.5527968 C13.1689792,51.5527968 12.6904053,52.0313707 12.6904053,52.6219968 C12.6904053,53.2126228 13.1689792,53.6911967 13.7596052,53.6911967 L66.5976127,53.6911967 C68.9435799,53.6911967 70.8523156,55.600075 70.8523156,57.9461848 C70.8523156,58.193954 70.6505932,58.3956764 70.4028239,58.3956764 L2.58789152,58.3956764 C2.34012225,58.3956764 2.13839987,58.193954 2.13839987,57.9460422 C2.13839987,55.5999324 4.04713559,53.6911967 6.39324536,53.6911967 L9.06510472,53.6911967 C9.65573076,53.6911967 10.1343047,53.2126228 10.1343047,52.6219968 C10.1343047,52.0313707 9.65573076,51.5527968 9.06510472,51.5527968 L6.39324536,51.5527968 C2.86787934,51.5527968 0,54.4208187 0,57.9461848 C0,59.3730677 1.16100857,60.5340763 2.58789152,60.5340763 L70.4026814,60.5340763 C71.8297069,60.5340763 72.9907155,59.3730677 72.9907155,57.9460422 C72.9907155,54.4206762 70.1228361,51.5527968 66.5974701,51.5527968 L56.3824765,51.5527968 L56.3824765,22.6670386 C56.3824765,22.0764125 55.9039026,21.5978387 55.3132766,21.5978387 C54.7226505,21.5978387 54.2440766,22.0764125 54.2440766,22.6670386 L54.2440766,51.5527968 L52.1056768,51.5527968 L52.1056768,6.77159958 C52.1056768,6.18197146 52.5852486,5.70239965 53.1748767,5.70239965 C53.7645048,5.70239965 54.2440766,6.18197146 54.2440766,6.77159958 L54.2440766,18.049663 C54.2440766,18.6402891 54.7226505,19.118863 55.3132766,19.118863 C55.9039026,19.118863 56.3824765,18.6402891 56.3824765,18.049663 L56.3824765,13.5431992 L58.0219164,13.5431992 L58.0219164,18.4615189 C58.0219164,19.6799791 59.013136,20.6711987 60.2315963,20.6711987 Z M2.49479985,15.396479 C2.29820962,15.396479 2.13839987,15.2366693 2.13839987,15.0400791 L2.13839987,5.63111965 C2.13839987,5.43452942 2.29820962,5.27471967 2.49479985,5.27471967 L4.27679973,5.27471967 L4.27679973,15.396479 L2.49479985,15.396479 Z M12.8303992,18.1763989 C12.8303992,18.3729891 12.6705895,18.5327988 12.4739992,18.5327988 L6.77159958,18.5327988 C6.57500935,18.5327988 6.4151996,18.3729891 6.4151996,18.1763989 L6.4151996,2.49479985 C6.4151996,2.29820962 6.57500935,2.13839987 6.77159958,2.13839987 L12.4739992,2.13839987 C12.6705895,2.13839987 12.8303992,2.29820962 12.8303992,2.49479985 L12.8303992,18.1763989 Z M14.9687991,11.4047993 L14.9687991,9.26639942 L16.608239,9.26639942 L16.608239,11.4047993 L14.9687991,11.4047993 Z M18.7466388,51.5527968 L18.7466388,6.77159958 C18.7466388,6.18197146 19.2262106,5.70239965 19.8158388,5.70239965 C20.4054669,5.70239965 20.8850387,6.18197146 20.8850387,6.77159958 L20.8850387,51.5527968 L18.7466388,51.5527968 Z M38.8475976,51.5527968 L34.1431179,51.5527968 L38.8475976,51.5527968 Z M29.8663181,51.5527968 L32.004718,51.5527968 L29.8663181,51.5527968 Z M40.9859975,51.5527968 L43.1243973,51.5527968 L40.9859975,51.5527968 Z M45.2627972,51.5527968 L27.7279183,51.5527968 L23.0234386,51.5527968 L23.0234386,13.5431992 L49.9672769,13.5431992 L49.9672769,51.5527968 L45.2627972,51.5527968 Z M70.7810356,5.27471967 C70.8202396,5.27471967 70.8523156,5.30679567 70.8523156,5.34599967 L70.8523156,15.325199 C70.8523156,15.364403 70.8202396,15.396479 70.7810356,15.396479 L68.7139157,15.396479 L68.7139157,5.27471967 L70.7810356,5.27471967 Z M60.1603163,2.20967986 C60.1603163,2.17047587 60.1923923,2.13839987 60.2315963,2.13839987 L66.5042359,2.13839987 C66.5434399,2.13839987 66.5755159,2.17047587 66.5755159,2.20967986 L66.5755159,18.4615189 C66.5755159,18.5007229 66.5434399,18.5327988 66.5042359,18.5327988 L60.2315963,18.5327988 C60.1923923,18.5327988 60.1603163,18.5007229 60.1603163,18.4615189 L60.1603163,2.20967986 Z M56.3824765,11.4047993 L56.3824765,9.26639942 L58.0219164,9.26639942 L58.0219164,11.4047993 L56.3824765,11.4047993 Z" id="Shape" fill="#E2292F"></path>
                        </g>
                    </g>
                </g>
            </g>
        </g>
    </g>
</svg>