<?xml version="1.0" encoding="UTF-8"?>
<svg width="82px" height="77px" viewBox="0 0 82 77" version="1.1" xmlns="http://www.w3.org/2000/svg" xmlns:xlink="http://www.w3.org/1999/xlink">
    <!-- Generator: Sketch 63.1 (92452) - https://sketch.com -->
    <title>dental_clinics</title>
    <desc>Created with Sketch.</desc>
    <g id="Page-1" stroke="none" stroke-width="1" fill="none" fill-rule="evenodd">
        <g id="slashq_desktop" transform="translate(-557.000000, -619.000000)" fill-rule="nonzero">
            <g id="Group-41" transform="translate(289.000000, 615.000000)">
                <g id="Group-5" transform="translate(230.000000, 0.000000)">
                    <g id="dental_clinics" transform="translate(36.000000, 0.000000)">
                        <path d="M72.9251314,9.29088819 C79.5082634,15.2108366 82.6946934,24.7962874 81.3683621,32.8895868 C80.0420309,40.9828862 74.2191131,47.5515961 69.8680996,54.8826008 C65.5170861,62.2136054 62.6703263,70.3231239 56.2974663,75.6916251 C49.9084316,81.0601263 39.9771219,83.7038293 31.9544352,80.8817169 C23.9155738,78.0596044 17.7853354,69.7878957 12.8358553,60.9323015 C7.87020042,52.0767074 4.11765343,42.669666 4.99109109,33.4572531 C5.88070353,24.2448402 11.4286502,15.2270557 19.0954918,9.50173567 C26.7623335,3.77641566 36.5804198,1.34356013 46.4632052,1.23002688 C56.3621654,1.13271266 66.3419994,3.37093974 72.9251314,9.29088819 Z" id="Path" fill="#FFCCCD" opacity="0.300000012" transform="translate(43.264370, 41.626995) rotate(-94.000000) translate(-43.264370, -41.626995) "></path>
                        <g id="tooth" transform="translate(11.199999, 7.200000)">
                            <path d="M58.521594,55.6070343 C57.6466924,54.9549185 56.5168443,54.7502667 55.4687943,55.0540743 L39.006716,59.9039939 L30.2515169,59.9039939 L24.0307175,56.4479942 L33.4079966,56.4479942 C35.3143292,56.4423008 36.8583028,54.8983272 36.8639962,52.9919946 L36.8639962,52.4159946 C36.8564306,50.8862091 35.8517184,49.540362 34.3871965,49.098235 L16.4505583,43.8220755 C16.3463042,43.7890806 16.2373208,43.7735116 16.1279983,43.7759955 L9.21599905,43.7759955 L9.21599905,41.4719957 C9.21599905,40.8357638 8.70023114,40.3199959 8.06399917,40.3199959 L1.15199988,40.3199959 C0.515767915,40.3199959 0,40.8357638 0,41.4719957 L0,66.8159931 C0,67.4522251 0.515767915,67.967993 1.15199988,67.967993 L8.06399917,67.967993 C8.70023114,67.967993 9.21599905,67.4522251 9.21599905,66.8159931 L9.21599905,64.9612733 L21.5193578,69.0623929 C21.6390224,69.0983743 21.7630607,69.1177552 21.8879978,69.12 L39.167996,69.12 C39.2978831,69.1204685 39.426749,69.0970383 39.5481559,69.0508729 L57.5999941,62.6803136 C58.9814536,62.1918941 59.904762,60.8854127 59.9040063,59.4201539 L59.9040063,58.371834 C59.906914,57.2833456 59.3941368,56.2577912 58.521594,55.6070343 Z M6.91199929,65.6639933 L2.30399976,65.6639933 L2.30399976,42.6239956 L6.91199929,42.6239956 L6.91199929,65.6639933 Z M57.6000151,59.4201539 C57.6029538,59.9123902 57.2928273,60.3521218 56.8281542,60.5145538 L38.972156,66.8159931 L22.0723177,66.8159931 L9.21599905,62.5305536 L9.21599905,46.0799953 L15.9667184,46.0799953 L33.7305565,51.3100747 C34.2220765,51.4534347 34.5599965,51.9039947 34.5599965,52.4159946 L34.5599965,52.9919946 C34.5599965,53.6282265 34.0442285,54.1439944 33.4079966,54.1439944 L19.583998,54.1439944 C19.0615342,54.1455846 18.6055582,54.4985827 18.4731263,55.0039862 C18.3406943,55.5093898 18.56497,56.0406356 19.019518,56.2982342 L29.387517,62.0582336 C29.5585705,62.1585251 29.7537235,62.2103004 29.9519969,62.2079936 L39.167996,62.2079936 C39.2773185,62.2104775 39.3863018,62.1949085 39.4905559,62.1619136 L56.1254342,57.2659141 C56.4735306,57.164386 56.8491138,57.2326739 57.1391941,57.4502341 C57.4292744,57.6677943 57.6000151,58.0092336 57.6000151,58.371834 L57.6000151,59.4201539 Z" id="Shape" fill="#E2292F"></path>
                            <path d="M43.7759955,8.06399917 L39.167996,8.06399917 C37.1635162,8.06399917 35.5507164,9.91871898 34.5599965,11.4508788 C33.5692766,9.91871898 31.9564767,8.06399917 29.9519969,8.06399917 L25.3439974,8.06399917 C20.892479,8.06907792 17.285077,11.67648 17.2799939,16.1279983 L17.2799939,17.1417582 C17.2781959,20.4147441 17.8353232,23.6640039 18.9273581,26.7494373 L23.7427176,40.3660759 C24.2378212,41.7996497 25.6332024,42.7227114 27.146212,42.6175289 C28.6592217,42.5123464 29.9134576,41.4050867 30.2054369,39.9167959 L33.4886366,31.3574368 C33.6624153,30.9177414 34.0872058,30.6288654 34.5599965,30.6288654 C35.0327871,30.6288654 35.4575776,30.9177414 35.6313563,31.3574368 L38.914556,39.9167959 C39.2083564,41.4020773 40.4597499,42.5070623 41.9699765,42.6147434 C43.480203,42.7224244 44.8757136,41.8061669 45.3772753,40.3775959 L50.1926348,26.7494373 C51.2846697,23.6640039 51.841797,20.4147441 51.839999,17.1417582 L51.839999,16.1279983 C51.8349159,11.67648 48.2275139,8.06907792 43.7759955,8.06399917 L43.7759955,8.06399917 Z M49.5360138,17.1417582 C49.5396036,20.1524509 49.0252214,23.1413228 48.0153551,25.9775973 L43.1999956,39.6172759 C43.0506152,40.0367188 42.6545188,40.3176709 42.2092757,40.3200536 C41.6903929,40.3254336 41.2474011,39.9464295 41.1724758,39.432956 C41.1587438,39.3511112 41.1395,39.2702873 41.1148758,39.191036 L37.7855961,30.5279969 C37.2722277,29.1933752 35.9899483,28.3127391 34.5599965,28.3127391 C33.1300446,28.3127391 31.8477652,29.1933752 31.3343968,30.5279969 L28.0051171,39.191036 C27.9804929,39.2702873 27.9612491,39.3511112 27.9475171,39.432956 C27.8735178,39.9101507 27.4827962,40.2748658 27.0016422,40.3158732 C26.5204882,40.3568807 26.0736829,40.0635458 25.9199973,39.6057559 L21.1046378,25.9775973 C20.0947715,23.1413228 19.5803893,20.1524509 19.5839791,17.1417582 L19.5839791,16.1279983 C19.5839791,12.9468385 22.1628376,10.3679989 25.3439974,10.3679989 L29.9519969,10.3679989 C31.1731168,10.3679989 32.7974366,12.7065587 33.5116766,14.2963185 C33.6988225,14.7070745 34.1086163,14.9706898 34.5599965,14.9706898 C35.0113766,14.9706898 35.4211704,14.7070745 35.6083163,14.2963185 C36.3225563,12.7065587 37.9468761,10.3679989 39.167996,10.3679989 L43.7759955,10.3679989 C46.9571553,10.3679989 49.5360138,12.9468385 49.5360138,16.1279983 L49.5360138,17.1417582 Z" id="Shape" fill="#E2292F"></path>
                            <path d="M44.9279954,16.1279983 L44.9279954,17.2799982 L47.2319952,17.2799982 L47.2319952,16.1279983 C47.2319952,14.2193024 45.6846914,12.6719987 43.7759955,12.6719987 L42.6239956,12.6719987 L42.6239956,14.9759985 L43.7759955,14.9759985 C44.4122275,14.9759985 44.9279954,15.4917664 44.9279954,16.1279983 Z" id="Path" fill="#262626"></path>
                            <path d="M34.5599965,19.583998 C38.810876,19.583998 40.3199959,17.1014382 40.3199959,14.9759985 L38.0159961,14.9759985 C38.0159961,16.9804783 35.8502363,17.2799982 34.5599965,17.2799982 C33.2697566,17.2799982 31.1039968,16.9804783 31.1039968,14.9759985 L28.799997,14.9759985 C28.799997,17.1014382 30.3091169,19.583998 34.5599965,19.583998 Z" id="Path" fill="#262626"></path>
                            <polygon id="Path" fill="#262626" points="50.6879948 6.91199929 52.9919946 6.91199929 52.9919946 4.60799953 55.2959943 4.60799953 55.2959943 2.30399976 52.9919946 2.30399976 52.9919946 0 50.6879948 0 50.6879948 2.30399976 48.383995 2.30399976 48.383995 4.60799953 50.6879948 4.60799953"></polygon>
                            <polygon id="Path" fill="#262626" points="64.5119934 12.6719987 62.2079936 12.6719987 62.2079936 10.3679989 59.9039939 10.3679989 59.9039939 12.6719987 57.5999941 12.6719987 57.5999941 14.9759985 59.9039939 14.9759985 59.9039939 17.2799982 62.2079936 17.2799982 62.2079936 14.9759985 64.5119934 14.9759985"></polygon>
                            <polygon id="Path" fill="#262626" points="16.1279983 6.91199929 18.4319981 6.91199929 18.4319981 4.60799953 20.7359979 4.60799953 20.7359979 2.30399976 18.4319981 2.30399976 18.4319981 0 16.1279983 0 16.1279983 2.30399976 13.8239986 2.30399976 13.8239986 4.60799953 16.1279983 4.60799953"></polygon>
                            <polygon id="Path" fill="#262626" points="6.91199929 17.2799982 9.21599905 17.2799982 9.21599905 14.9759985 11.5199988 14.9759985 11.5199988 12.6719987 9.21599905 12.6719987 9.21599905 10.3679989 6.91199929 10.3679989 6.91199929 12.6719987 4.60799953 12.6719987 4.60799953 14.9759985 6.91199929 14.9759985"></polygon>
                        </g>
                    </g>
                </g>
            </g>
        </g>
    </g>
</svg>