<svg xmlns="http://www.w3.org/2000/svg" width="401" height="386" viewBox="0 0 401 386">
  <g fill="none" fill-rule="evenodd" transform="translate(0 .955)">
    <path fill="#FFF1F2" fill-rule="nonzero" d="M286.336641,84.3638949 C326.065151,118.519941 365.552882,158.92991 362.663536,196.693989 C360.014969,234.217532 315.230103,269.095184 275.501593,297.478377 C235.532304,325.621034 200.619371,347.509767 156.075284,357.131189 C111.290419,366.75261 56.8743991,364.58779 22.202245,336.204597 C-12.7106879,308.06194 -27.8797553,253.70091 -19.9340534,207.277552 C-11.9883514,160.854194 19.07212,122.609045 53.985053,88.2124634 C88.8979859,53.8158823 127.181823,23.5084052 166.669554,22.546263 C206.157285,21.5841209 246.608131,49.9673137 286.336641,84.3638949 Z" transform="rotate(-90 170.407 192.406)"/>
    <g transform="translate(0 41.523)">
      <polygon fill="#FFB9BB" points="211.838 259.709 384.457 259.709 384.457 0 211.838 0"/>
      <polygon fill="#FB004E" points="228.517 169.066 367.495 169.066 367.495 14.527 228.517 14.527"/>
      <path fill="#FA999C" d="M231.471166,218.441078 C231.471166,204.669214 242.662966,193.505791 256.465892,193.505791 C270.270585,193.505791 281.460618,204.669214 281.460618,218.441078 C281.460618,232.211179 270.270585,243.374602 256.465892,243.374602 C242.662966,243.374602 231.471166,232.211179 231.471166,218.441078"/>
      <path fill="#FFF" d="M277.593396,218.441078 C277.593396,206.800028 268.134691,197.362054 256.467659,197.362054 C244.797093,197.362054 235.338387,206.800028 235.338387,218.441078 C235.338387,230.080365 244.797093,239.518339 256.467659,239.518339 C261.287111,239.518339 265.728498,237.909213 269.281254,235.198549 L256.467659,218.441078 L276.210101,225.95797 C277.104031,223.622711 277.593396,221.088293 277.593396,218.441078"/>
      <path fill="#FA999C" d="M316.631315,218.441078 C316.631315,204.669214 327.821349,193.505791 341.626041,193.505791 C355.430734,193.505791 366.620768,204.669214 366.620768,218.441078 C366.620768,232.211179 355.430734,243.374602 341.626041,243.374602 C327.821349,243.374602 316.631315,232.211179 316.631315,218.441078"/>
      <path fill="#FFF" d="M341.626041,197.362054 C329.955476,197.362054 320.498537,206.800028 320.498537,218.441078 C320.498537,224.20256 322.812863,229.421205 326.568786,233.224594 L341.626041,218.441078 L361.37025,225.95797 C362.262414,223.622711 362.753546,221.088293 362.753546,218.441078 C362.753546,206.800028 353.29484,197.362054 341.626041,197.362054"/>
      <path fill="#FA999C" d="M338.537917 207.739419L329.54561 207.739419C329.192278 207.739419 328.902545 208.028463 328.902545 208.380955 328.902545 208.733447 329.192278 209.020728 329.54561 209.020728L338.537917 209.020728C338.891249 209.020728 339.180982 208.733447 339.180982 208.380955 339.180982 208.028463 338.891249 207.739419 338.537917 207.739419M338.537917 209.769774L329.54561 209.769774C329.192278 209.769774 328.902545 210.057055 328.902545 210.409547 328.902545 210.762039 329.192278 211.051082 329.54561 211.051082L338.537917 211.051082C338.891249 211.051082 339.180982 210.762039 339.180982 210.409547 339.180982 210.057055 338.891249 209.769774 338.537917 209.769774M333.259133 211.798365L329.54561 211.798365C329.192278 211.798365 328.902545 212.087409 328.902545 212.439901 328.902545 212.792393 329.192278 213.079674 329.54561 213.079674L333.259133 213.079674C333.612465 213.079674 333.900431 212.792393 333.900431 212.439901 333.900431 212.087409 333.612465 211.798365 333.259133 211.798365M253.206402 207.739419L244.212328 207.739419C243.858996 207.739419 243.569263 208.028463 243.569263 208.380955 243.569263 208.733447 243.858996 209.020728 244.212328 209.020728L253.206402 209.020728C253.559734 209.020728 253.8477 208.733447 253.8477 208.380955 253.8477 208.028463 253.559734 207.739419 253.206402 207.739419M253.206402 209.769774L244.212328 209.769774C243.858996 209.769774 243.569263 210.057055 243.569263 210.409547 243.569263 210.762039 243.858996 211.051082 244.212328 211.051082L253.206402 211.051082C253.559734 211.051082 253.8477 210.762039 253.8477 210.409547 253.8477 210.057055 253.559734 209.769774 253.206402 209.769774M247.92585 211.798365L244.212328 211.798365C243.858996 211.798365 243.569263 212.087409 243.569263 212.439901 243.569263 212.792393 243.858996 213.079674 244.212328 213.079674L247.92585 213.079674C248.279183 213.079674 248.568915 212.792393 248.568915 212.439901 248.568915 212.087409 248.279183 211.798365 247.92585 211.798365"/>
      <polygon fill="#FFF" points="240.893 160.897 255.558 160.897 255.558 69.756 240.893 69.756"/>
      <polygon fill="#FFF" points="264.919 160.897 279.584 160.897 279.584 44.352 264.919 44.352"/>
      <polygon fill="#FFF" points="291.135 160.897 305.802 160.897 305.802 91.797 291.135 91.797"/>
      <polygon fill="#FFF" points="316.645 160.897 331.311 160.897 331.311 59.911 316.645 59.911"/>
      <polygon fill="#FFF" points="342.289 160.897 356.954 160.897 356.954 105.321 342.289 105.321"/>
      <path fill="#FFF" d="M330.616207 46.7730496L318.196577 46.7730496C317.489912 46.7730496 316.910447 47.3497266 316.910447 48.0547106 316.910447 48.7596947 317.489912 49.3363717 318.196577 49.3363717L330.616207 49.3363717C331.322872 49.3363717 331.90057 48.7596947 331.90057 48.0547106 331.90057 47.3497266 331.322872 46.7730496 330.616207 46.7730496M321.025002 51.437048L318.196577 51.437048C317.489912 51.437048 316.910447 52.0139012 316.910447 52.7188853 316.910447 53.4238693 317.489912 54.0005463 318.196577 54.0005463L321.025002 54.0005463C321.731667 54.0005463 322.309365 53.4238693 322.309365 52.7188853 322.309365 52.0139012 321.731667 51.437048 321.025002 51.437048M279.437791 26.9236943L267.018161 26.9236943C266.311496 26.9236943 265.732031 27.5003712 265.732031 28.2053553 265.732031 28.9103394 266.311496 29.4870163 267.018161 29.4870163L279.437791 29.4870163C280.144456 29.4870163 280.722154 28.9103394 280.722154 28.2053553 280.722154 27.5003712 280.144456 26.9236943 279.437791 26.9236943M269.846586 31.5876926L267.018161 31.5876926C266.311496 31.5876926 265.732031 32.1645459 265.732031 32.8695299 265.732031 33.574514 266.311496 34.151191 267.018161 34.151191L269.846586 34.151191C270.553251 34.151191 271.130949 33.574514 271.130949 32.8695299 271.130949 32.1645459 270.553251 31.5876926 269.846586 31.5876926M304.678083 78.193661L292.258453 78.193661C291.551789 78.193661 290.97409 78.7705142 290.97409 79.4754983 290.97409 80.1804824 291.551789 80.7571593 292.258453 80.7571593L304.678083 80.7571593C305.384748 80.7571593 305.962446 80.1804824 305.962446 79.4754983 305.962446 78.7705142 305.384748 78.193661 304.678083 78.193661M295.086878 82.8578356L292.258453 82.8578356C291.551789 82.8578356 290.97409 83.4346888 290.97409 84.1396729 290.97409 84.844657 291.551789 85.421334 292.258453 85.421334L295.086878 85.421334C295.793543 85.421334 296.371241 84.844657 296.371241 84.1396729 296.371241 83.4346888 295.793543 82.8578356 295.086878 82.8578356M355.831766 91.7966812L343.412136 91.7966812C342.705472 91.7966812 342.126007 92.3733582 342.126007 93.0783422 342.126007 93.7833263 342.705472 94.3601795 343.412136 94.3601795L355.831766 94.3601795C356.538431 94.3601795 357.116129 93.7833263 357.116129 93.0783422 357.116129 92.3733582 356.538431 91.7966812 355.831766 91.7966812M346.240561 96.4606796L343.412136 96.4606796C342.705472 96.4606796 342.126007 97.0375328 342.126007 97.7425169 342.126007 98.4475009 342.705472 99.0243542 343.412136 99.0243542L346.240561 99.0243542C346.947226 99.0243542 347.524924 98.4475009 347.524924 97.7425169 347.524924 97.0375328 346.947226 96.4606796 346.240561 96.4606796"/>
      <polygon fill="#FA999C" points="62.386 169.3 188.545 169.3 188.545 98.444 62.386 98.444"/>
      <polygon fill="#FFB9BB" points="66.488 169.3 192.647 169.3 192.647 98.444 66.488 98.444"/>
      <path fill="#FA999C" d="M100.991379 109.514341C88.3931399 109.514341 78.1804233 119.702947 78.1804233 132.271051 78.1804233 144.83933 88.3931399 155.02776 100.991379 155.02776 113.589442 155.02776 123.801982 144.83933 123.801982 132.271051 123.801982 119.702947 113.589442 109.514341 100.991379 109.514341M178.466022 119.558602L140.677133 119.558602C139.306203 119.558602 138.18614 120.676354 138.18614 122.042613 138.18614 123.408872 139.306203 124.526801 140.677133 124.526801L178.466022 124.526801C179.835184 124.526801 180.955248 123.408872 180.955248 122.042613 180.955248 120.676354 179.835184 119.558602 178.466022 119.558602M178.466022 129.787039L140.677133 129.787039C139.306203 129.787039 138.18614 130.904968 138.18614 132.271051 138.18614 133.63731 139.306203 134.755062 140.677133 134.755062L178.466022 134.755062C179.835184 134.755062 180.955248 133.63731 180.955248 132.271051 180.955248 130.904968 179.835184 129.787039 178.466022 129.787039M178.466022 140.015477L140.677133 140.015477C139.306203 140.015477 138.18614 141.133405 138.18614 142.499488 138.18614 143.865747 139.306203 144.9835 140.677133 144.9835L178.466022 144.9835C179.835184 144.9835 180.955248 143.865747 180.955248 142.499488 180.955248 141.133405 179.835184 140.015477 178.466022 140.015477"/>
      <path fill="#FFF" d="M80.1062609,131.940589 L100.991733,131.940589 L100.991733,111.104785 C89.4575534,111.104785 80.1062609,120.433663 80.1062609,131.940589"/>
      <path fill="#FB004E" d="M121.876321,132.611205 L80.1062609,132.611205 C80.1062609,144.117779 89.4573768,153.446833 100.991379,153.446833 C100.991556,153.446833 100.991733,153.446833 100.991733,153.446833 C112.525736,153.446833 121.876321,144.117779 121.876321,132.611205"/>
      <path fill="#FA999C" d="M97.3842101 121.228533L86.0493101 121.228533C85.4044787 121.228533 84.8767769 121.754979 84.8767769 122.398454 84.8767769 123.041752 85.4044787 123.568198 86.0493101 123.568198L97.3842101 123.568198C98.0292182 123.568198 98.5567433 123.041752 98.5567433 122.398454 98.5567433 121.754979 98.0292182 121.228533 97.3842101 121.228533M88.6309325 125.485403L86.0493101 125.485403C85.4044787 125.485403 84.8767769 126.011673 84.8767769 126.655147 84.8767769 127.298445 85.4044787 127.824892 86.0493101 127.824892L88.6309325 127.824892C89.275764 127.824892 89.8034657 127.298445 89.8034657 126.655147 89.8034657 126.011673 89.275764 125.485403 88.6309325 125.485403"/>
      <path fill="#FFF" d="M114.212367 137.704892L102.877467 137.704892C102.232636 137.704892 101.704934 138.231162 101.704934 138.874636 101.704934 139.517934 102.232636 140.044381 102.877467 140.044381L114.212367 140.044381C114.857199 140.044381 115.3849 139.517934 115.3849 138.874636 115.3849 138.231162 114.857199 137.704892 114.212367 137.704892M105.458913 141.961409L102.877467 141.961409C102.232636 141.961409 101.704934 142.487856 101.704934 143.13133 101.704934 143.774628 102.232636 144.301075 102.877467 144.301075L105.458913 144.301075C106.103921 144.301075 106.631623 143.774628 106.631623 143.13133 106.631623 142.487856 106.103921 141.961409 105.458913 141.961409"/>
      <polygon fill="#FA999C" points="53.5 254.452 179.659 254.452 179.659 181.988 53.5 181.988"/>
      <polygon fill="#FFB9BB" points="57.602 254.452 183.762 254.452 183.762 181.988 57.602 181.988"/>
      <path fill="#FA999C" d="M69.2932328 215.982446C69.2932328 203.414342 79.506126 193.22556 92.1043656 193.22556 104.702429 193.22556 114.915145 203.414342 114.915145 215.982446 114.915145 228.550549 104.702429 238.739332 92.1043656 238.739332 79.506126 238.739332 69.2932328 228.550549 69.2932328 215.982446M131.789059 208.238196L169.577948 208.238196C170.94711 208.238196 172.06894 207.119033 172.06894 205.753127 172.06894 204.38722 170.94711 203.26982 169.577948 203.26982L131.789059 203.26982C130.419896 203.26982 129.299833 204.38722 129.299833 205.753127 129.299833 207.119033 130.419896 208.238196 131.789059 208.238196M169.577948 213.497377L131.789059 213.497377C130.419896 213.497377 129.299833 214.616539 129.299833 215.982446 129.299833 217.348352 130.419896 218.465752 131.789059 218.465752L169.577948 218.465752C170.94711 218.465752 172.06894 217.348352 172.06894 215.982446 172.06894 214.616539 170.94711 213.497377 169.577948 213.497377M169.577948 223.726696L131.789059 223.726696C130.419896 223.726696 129.299833 224.844095 129.299833 226.210002 129.299833 227.575909 130.419896 228.695071 131.789059 228.695071L169.577948 228.695071C170.94711 228.695071 172.06894 227.575909 172.06894 226.210002 172.06894 224.844095 170.94711 223.726696 169.577948 223.726696"/>
      <path fill="#FFF" d="M92.104719,216.3508 L71.2211904,216.086431 C71.2192471,216.174554 71.2192471,216.264439 71.2192471,216.3508 C71.2192471,227.857902 80.5705396,237.186604 92.104719,237.186604 C96.2282835,237.186604 100.072362,235.993419 103.310476,233.934865 L92.104719,216.3508"/>
      <path fill="#FA999C" d="M92.8739234 222.912439L81.5388467 222.912439C80.8940153 222.912439 80.3663135 223.437652 80.3663135 224.082713 80.3663135 224.726011 80.8940153 225.251224 81.5388467 225.251224L92.8739234 225.251224C93.5187548 225.251224 94.0464566 224.726011 94.0464566 224.082713 94.0464566 223.437652 93.5187548 222.912439 92.8739234 222.912439M84.1204691 227.16878L81.5388467 227.16878C80.8940153 227.16878 80.3663135 227.695756 80.3663135 228.339054 80.3663135 228.982352 80.8940153 229.509328 81.5388467 229.509328L84.1204691 229.509328C84.7654772 229.509328 85.2930023 228.982352 85.2930023 228.339054 85.2930023 227.695756 84.7654772 227.16878 84.1204691 227.16878"/>
      <polygon fill="#FA999C" points="53.5 86.833 179.66 86.833 179.66 21.169 53.5 21.169"/>
      <polygon fill="#FFB9BB" points="57.602 86.833 183.762 86.833 183.762 21.169 57.602 21.169"/>
      <path fill="#FA999C" d="M69.2935861,54.9656695 C69.2935861,42.3975659 79.5064794,32.2089599 92.1045423,32.2089599 C104.702782,32.2089599 114.915499,42.3975659 114.915499,54.9656695 C114.915499,67.5339493 104.702782,77.7225554 92.1045423,77.7225554 C79.5064794,77.7225554 69.2935861,67.5339493 69.2935861,54.9656695"/>
      <path fill="#FFF" d="M92.1050723,34.1319802 C80.5707162,34.1319802 71.2196004,43.4590957 71.2196004,54.9658457 C71.2196004,62.8484489 75.6088708,69.7091777 82.0815651,73.247669 C85.4272686,67.0654874 92.1050723,54.9658457 92.1050723,54.9658457 L101.993783,73.3199299 C108.540501,69.8027643 112.988601,62.9029089 112.988601,54.9658457 C112.988601,43.4590957 103.639252,34.1319802 92.1050723,34.1319802"/>
      <path fill="#FA999C" d="M169.577948 42.2533967L131.789059 42.2533967C130.419896 42.2533967 129.299833 43.3711489 129.299833 44.7372318L129.299833 44.7374081C129.299833 46.103491 130.419896 47.2212432 131.789059 47.2212432L169.577948 47.2212432C170.94711 47.2212432 172.06894 46.103491 172.06894 44.7374081L172.06894 44.7372318C172.06894 43.3711489 170.94711 42.2533967 169.577948 42.2533967M169.577948 52.4816581L131.789059 52.4816581C130.419896 52.4816581 129.299833 53.5994104 129.299833 54.9656695 129.299833 56.3319286 130.419896 57.4498571 131.789059 57.4498571L169.577948 57.4498571C170.94711 57.4498571 172.06894 56.3319286 172.06894 54.9656695 172.06894 53.5994104 170.94711 52.4816581 169.577948 52.4816581M169.577948 62.7100958L131.789059 62.7100958C130.419896 62.7100958 129.299833 63.8280243 129.299833 65.1942834 129.299833 66.5603663 130.419896 67.6781186 131.789059 67.6781186L169.577948 67.6781186C170.94711 67.6781186 172.06894 66.5603663 172.06894 65.1942834 172.06894 63.8280243 170.94711 62.7100958 169.577948 62.7100958M92.8741 45.0149955L81.5392001 45.0149955C80.8943686 45.0149955 80.3666668 45.5414424 80.3666668 46.1847404 80.3666668 46.8282146 80.8943686 47.3544852 81.5392001 47.3544852L92.8741 47.3544852C93.5189315 47.3544852 94.0466333 46.8282146 94.0466333 46.1847404 94.0466333 45.5414424 93.5189315 45.0149955 92.8741 45.0149955M84.1208225 49.2716894L81.5392001 49.2716894C80.8943686 49.2716894 80.3666668 49.7981362 80.3666668 50.4414342 80.3666668 51.0849084 80.8943686 51.611179 81.5392001 51.611179L84.1208225 51.611179C84.7658306 51.611179 85.2933557 51.0849084 85.2933557 50.4414342 85.2933557 49.7981362 84.7658306 49.2716894 84.1208225 49.2716894"/>
      <path fill="#D70647" d="M213.023686,134.569827 C213.023686,134.569827 227.739977,149.72628 228.446641,155.440176 C229.153306,161.155834 221.445362,170.095032 221.445362,170.095032 L213.023686,134.569827"/>
      <path fill="#060323" d="M206.732605 291.792908C206.732605 291.792908 206.230873 299.850876 204.669144 299.965436 204.460678 299.981298 196.743901 299.981298 196.743901 299.981298L186.892997 299.924899C186.892997 299.924899 186.956597 297.556153 189.836255 297.055614 192.715913 296.555075 197.537132 294.535296 199.280827 290.738957 201.116388 286.745222 206.732605 291.792908 206.732605 291.792908M228.67454 291.792908C228.67454 291.792908 228.172809 299.850876 226.61108 299.965436 226.402614 299.981298 218.685836 299.981298 218.685836 299.981298L208.804899 299.946049C208.804899 299.946049 208.900299 297.556153 211.77819 297.055614 214.657848 296.555075 219.479067 294.535296 221.222762 290.738957 223.058324 286.745222 228.67454 291.792908 228.67454 291.792908"/>
      <path fill="#2E2A5D" d="M195.821704,205.391822 C195.821704,205.391822 198.399263,221.832051 208.009901,251.014867 C217.622306,280.19592 218.931402,292.83276 218.931402,292.83276 C218.931402,292.83276 221.531928,293.209926 224.27732,293.209926 C226.013948,293.209926 229.241769,292.545478 229.241769,292.545478 C229.241769,292.545478 229.329972,260.651999 224.900952,245.977756 C220.471931,231.303512 223.945188,193.073988 223.945188,193.073988 L195.821704,205.391822"/>
      <path fill="#3C386B" d="M190.804385,193.974605 C190.804385,193.974605 190.440453,218.745983 194.736974,249.164284 C199.031728,279.580821 197.575999,292.492605 197.575999,292.492605 C197.575999,292.492605 201.112855,293.123565 202.356585,293.165864 C203.685114,293.209926 207.866802,292.83276 207.866802,292.83276 C207.866802,292.83276 214.01655,262.405647 212.253422,247.181516 C210.490294,231.957385 220.673331,194.938671 220.673331,194.938671 L190.804385,193.974605"/>
      <path fill="#FFB27D" d="M210.72526,136.001826 L205.872241,139.58808 L198.856828,138.11484 C198.953995,137.476653 199.41686,134.831905 199.839092,132.436546 C199.863825,132.295196 199.890325,132.153847 199.913292,132.015846 C200.275457,129.977561 200.58639,128.226557 200.58639,128.226557 L207.138937,124.969002 L209.580463,123.754667 C209.575163,123.797494 209.391431,126.016784 209.366697,126.340548 C208.907365,132.093571 210.72526,136.001826 210.72526,136.001826"/>
      <path fill="#D70647" d="M199.34796,134.192485 C199.50166,134.127979 208.889699,131.364265 209.909062,131.70019 C210.930193,132.036115 211.532624,134.004606 211.532624,134.004606 L196.178569,137.467841 C196.178569,137.467841 197.386966,135.016435 199.34796,134.192485"/>
      <path fill="#FB004E" d="M224.627119,197.032474 C223.037124,204.274423 196.553102,205.132741 189.726722,198.558764 C188.949391,197.809719 188.912291,194.323572 189.205557,189.623091 C189.777955,180.440674 191.617049,166.626511 191.689483,159.567858 C191.723049,156.15926 192.192981,152.673113 192.818379,149.507735 C194.148675,142.76139 196.176803,137.467136 196.176803,137.467136 C196.176803,137.467136 209.112298,133.295392 211.532624,134.004783 C223.194357,137.422722 226.218881,189.790525 224.627119,197.032474"/>
      <path fill="#D70647" d="M189.205557,189.623091 C189.777955,180.440674 191.617049,166.626511 191.689483,159.567858 C191.723049,156.15926 192.192981,152.673113 192.818379,149.507735 L200.600523,148.138127 C200.600523,148.138127 208.207767,179.138216 189.205557,189.623091"/>
      <path fill="#FFB27D" d="M193.419044,176.822343 C193.419044,176.822343 193.949043,178.087789 192.834279,178.937295 C191.721282,179.786801 190.998718,181.16152 191.253117,182.167885 C191.509283,183.172487 193.952576,184.813337 194.798807,184.548968 C195.646804,184.284599 197.369299,182.959229 197.1838,182.428729 C196.9983,181.899991 198.344496,177.775834 196.279269,176.187857 C194.214042,174.599881 193.419044,176.822343 193.419044,176.822343"/>
      <path fill="#FB004E" d="M202.119852,135.60915 C202.119852,135.60915 194.530274,137.025816 188.482992,145.915665 C182.437476,154.80569 178.458955,161.414916 179.571952,164.619069 C180.686715,167.823221 190.839718,178.935533 192.59048,178.935533 C194.341241,178.935533 197.166133,177.664799 197.325133,174.807851 C197.325133,174.807851 190.175454,164.11853 191.583483,162.518216 C192.185914,161.834381 200.865522,154.80569 202.103952,157.979881 C204.153279,163.233775 202.119852,135.60915 202.119852,135.60915"/>
      <path fill="#FCA56B" d="M208.873799,126.442242 C207.435736,129.188508 202.075685,131.563423 199.839092,132.436546 C199.863825,132.295196 199.890325,132.153847 199.913292,132.015846 C200.275457,129.977561 200.58639,128.226557 200.58639,128.226557 L207.138937,124.969002 C208.585833,124.946795 209.467397,125.311977 208.873799,126.442242"/>
      <path fill="#FFB27D" d="M198.476996,128.375309 C198.476996,128.375309 208.174201,131.393345 209.965595,125.339295 C211.755224,119.285596 214.214416,115.597825 208.098234,113.415018 C201.982052,111.232035 200.089958,113.186427 198.999928,115.062037 C197.908131,116.937647 196.000137,127.434155 198.476996,128.375309"/>
      <path fill="#0E0941" d="M199.37976,114.478663 C199.37976,114.478663 199.998091,121.523568 201.459121,121.217782 C202.918383,120.911818 204.243379,120.685166 204.029613,122.808754 C203.815847,124.932166 201.791253,127.384453 206.29094,127.760034 C210.792393,128.13579 217.261907,116.556603 216.025244,114.364103 C212.458355,108.038457 194.224642,106.761907 199.37976,114.478663"/>
      <polyline fill="#FFB27D" points="24.777 278.183 27.729 290.589 32.152 290.564 32.314 278.183 24.777 278.183"/>
      <polyline fill="#FFB27D" points="61.976 278.712 70.377 290.589 73.651 286.394 68.595 277.08 61.976 278.712"/>
      <path fill="#0E0941" d="M40.1358986,115.168666 C38.6093264,114.302945 36.7795951,114.208654 35.5,114.284087 C35.8296612,113.944813 36.4776727,113.821089 36.4776727,113.821089 C35.6840883,113.703356 33.9128335,114.488532 33.9128335,114.488532 C22.8747327,110.245409 21.1398711,126.459514 21.3718338,130.226597 C21.6020298,133.99315 17.6625514,135.223348 11.9196649,138.191154 C0.962477168,143.854291 0,151.437629 0,151.437629 C0.0853297489,151.486978 0.174369487,151.545139 0.269239208,151.61035 C0.812840941,150.690346 1.93202098,148.964897 2.87577154,148.705816 C2.84008498,148.788651 1.76047815,151.079849 1.35767934,152.394645 C4.59031649,154.847989 10.637422,160.283416 14.8519696,164.136154 C14.833243,163.383584 14.8632763,162.313771 15.1390521,161.749783 L15.6598639,164.87815 C17.9150073,166.945516 19.4701994,168.401308 19.4701994,168.401308 C19.1915969,165.357539 33.2704754,149.292715 40.6157238,144.481551 C42.4037619,141.855485 43.0394067,137.216161 43.0869299,136.85098 C42.7782941,140.52941 42.1474193,142.592722 41.5836776,143.754536 C47.8035627,138.043636 44.1824367,117.462684 40.1358986,115.168666"/>
      <path fill="#FFB27D" d="M40.1809484,144.721069 C40.217695,144.73746 36.6343755,146.593683 33.9391568,145.858209 C31.4038209,145.168558 29.7472225,141.888972 29.7822024,141.881746 C30.8559792,141.669017 31.1654983,140.19701 31.1427084,133.871893 L31.6280103,133.967242 L39.7892796,135.579541 C39.7892796,135.579541 39.6036035,138.141805 39.5981268,140.555495 C39.5926502,142.582324 39.7157865,144.504639 40.1809484,144.721069"/>
      <path fill="#090538" d="M30.9517323,117.823812 C30.9517323,117.823812 34.9777771,113.547907 40.0321955,117.605091 C40.0321955,117.605091 37.0905275,117.097502 30.9517323,117.823812"/>
      <path fill="#D68D5D" d="M39.7892796,135.579541 C39.7892796,135.579541 39.6036035,138.141805 39.5981268,140.555495 C35.0311302,140.427188 32.617164,136.270954 31.6280103,133.967242 L39.7892796,135.579541"/>
      <path fill="#0E0941" d="M30.7851361,133.080901 C30.7851361,133.080901 28.3918398,129.308355 27.8174981,126.082524 C27.4072794,123.779517 28.5831692,115.242689 37.1820406,116.472181 C37.1820406,116.472181 39.6795699,116.717692 42.0271097,118.2995 C43.8941175,119.557544 46.5884529,122.273319 43.5759418,129.722533 L42.7933107,132.238974 L30.7851361,133.080901"/>
      <path fill="#3C386B" d="M72.3179339,283.139228 L67.9919099,283.271413 L63.3090204,283.414172 C63.3090204,283.414172 52.4929889,271.401244 46.4259201,252.142841 C46.2842338,251.695176 46.1353042,251.240462 45.977188,250.782222 C42.6569245,241.12394 35.7734814,228.999977 32.1459954,218.026899 C31.5686504,216.278539 31.0501353,214.634164 30.5849733,213.076149 C30.4362204,212.577373 30.2908242,212.087409 30.1530246,211.604495 C27.4797125,202.339241 26.7057381,196.255229 25.9923602,189.755276 L52.1859431,189.963246 C52.1859431,189.963246 56.414624,234.350806 72.3179339,283.139228"/>
      <path fill="#E7F1FD" d="M48.5190606,174.948848 C48.4529874,187.383004 50.3473785,192.717971 50.3473785,192.717971 C50.3473785,192.717971 39.1324348,198.403668 25.8031507,194.217825 C25.6460945,194.168476 14.7662865,191.692219 14.7662865,191.692219 C14.9895926,191.188156 16.9732001,182.80942 17.1904994,182.347656 C20.0046145,176.318279 22.1415682,173.674589 22.4754672,171.820481 C23.0945054,168.360772 23.1081087,164.779452 22.7994729,161.402579 C21.9862786,152.463381 19.5673658,145.04219 19.5673658,145.04219 C23.1992684,144.217887 26.6944314,142.807919 30.474557,141.393544 C31.3441078,142.473756 33.9080636,143.565424 36.2137334,143.513784 C38.868849,143.455447 39.6979432,142.335403 39.6006001,141.073482 C42.4300851,142.64401 44.6792219,144.138047 44.6792219,144.138047 C47.0840014,148.305208 51.9610471,152.352346 52.3142027,158.744789 C52.4016525,160.316903 48.5208272,174.599881 48.5190606,174.948848"/>
      <path fill="#5F9AA8" d="M25.9921835,176.334141 C24.8470336,177.95208 22.6519567,187.777795 17.1904994,189.01328 C20.0046145,182.009263 22.1415682,178.939058 22.4754672,176.785331 C23.0945054,172.766922 23.1081087,168.607516 22.7994729,164.68428 C24.6277909,161.487177 25.9921835,159.296439 25.9921835,159.296439 C26.1358131,158.778275 28.897635,150.260305 29.7825557,157.874133 C30.6657098,165.491486 27.2712464,174.525857 25.9921835,176.334141"/>
      <path fill="#FFB27D" d="M41.3144384,137.865099 C41.3144384,137.865099 30.5091836,138.042931 30.5017636,131.328311 C30.4943436,124.61369 29.0946177,120.114305 35.9932541,119.717047 C42.8918905,119.319436 44.2350832,121.880114 44.7839849,124.120906 C45.3328866,126.361522 44.1250202,137.645849 41.3144384,137.865099"/>
      <path fill="#0E0941" d="M44.4628058,120.387487 C42.7952541,118.371056 41.5343878,118.809556 40.8264865,119.415137 C38.4914901,115.934278 31.1114385,120.968217 31.1114385,120.968217 C30.3886972,125.786078 26.9060775,128.545915 26.9060775,128.545915 C26.9060775,128.545915 28.8755517,129.759545 33.4158717,128.594911 C36.9891212,127.678079 39.5820502,122.604661 40.5247408,120.484598 C41.1670989,121.054225 42.5231882,122.371135 42.9295203,123.660551 C43.4679988,125.37049 43.7103847,128.890476 44.7387583,128.770628 C44.7387583,128.770628 46.9675785,123.416274 44.4628058,120.387487"/>
      <path fill="#FFB27D" d="M27.5809422,289.894738 C27.5809422,289.894738 27.9371011,292.351608 27.0179072,294.981198 C27.0179072,294.981198 26.2939293,298.271712 29.5419364,298.333398 C32.7899435,298.393321 33.5867078,298.088416 33.2190656,296.070399 C32.8514233,294.052382 32.1518254,290.564473 32.1518254,290.564473 L27.5809422,289.894738"/>
      <path fill="#FB004E" d="M33.5255813,299.947811 C33.5255813,299.947811 33.522048,299.949574 33.5149814,299.954861 L26.7946012,299.954861 C26.7875345,299.949574 26.7840012,299.947811 26.7840012,299.947811 C26.4165356,298.225888 27.0172005,294.984723 27.0172005,294.984723 C30.6953897,298.492019 32.9973496,294.8966 32.9973496,294.8966 C33.5944811,296.396454 33.5255813,299.947811 33.5255813,299.947811"/>
      <path fill="#FFB27D" d="M81.4780736,296.553313 C81.4780736,296.553313 75.4894445,289.769604 73.6508799,286.394492 L69.1980097,288.671591 L79.1517338,297.996768 L81.4805469,297.6901 L81.4780736,296.553313"/>
      <path fill="#FB004E" d="M85.1509628 299.935474L76.8423539 299.935474C76.110956 299.278076 75.4131248 297.952706 74.5580606 296.214921 74.0686954 295.219131 72.9715986 294.671005 71.8462352 294.369625L71.8462352 299.935474 70.1272736 299.935474 68.5355117 294.017133C67.4755148 292.034365 68.2717491 290.215506 69.0172802 288.648675 69.884711 288.646917 72.4009669 289.27259 76.8246873 294.343188 78.2786497 296.008713 79.8827783 296.602662 81.4780736 296.553313 81.4992735 296.567413 81.5222401 296.57975 81.54344 296.588562 84.0626993 297.741211 84.8841969 299.158229 85.1509628 299.935474M84.7481639 149.008959C84.7481639 149.008959 77.6550182 152.965682 75.1216256 154.105994 74.2206283 154.511359 72.5882331 155.269217 70.9205046 156.046462 69.9135076 156.515277 68.8941439 156.992903 68.0125799 157.407081 66.5232842 158.105016 64.7513228 157.722562 63.6807259 156.47474 59.8401806 152.001616 49.9007665 142.304384 39.63611 141.088815L39.6006001 141.073482C39.6006001 141.073482 39.6021901 141.077359 39.6051935 141.084761 39.6009535 141.084233 39.5965368 141.083704 39.5922968 141.083175L39.6490067 141.193505C40.2259983 142.624799 45.8529917 156.650986 46.0275379 159.608394 46.2112707 162.726186 46.7628224 210.59813 46.7628224 210.59813 46.7628224 210.59813 46.3951801 212.799443 50.623861 211.882963 54.8523653 210.964722 55.9554687 210.048242 55.9554687 210.048242 55.9554687 210.048242 51.9106972 180.518222 53.0139773 170.246604 53.2303934 168.232112 53.0350006 165.965588 52.5832653 163.626803 58.8345969 167.405518 66.2052852 169.085143 66.2052852 169.085143 66.2052852 169.085143 68.9542104 167.888432 73.2259979 165.248267 75.0191592 164.137917 77.0990498 162.368407 79.1460804 160.496674 81.6194065 158.233675 85.875294 152.770049 85.875294 152.770049L84.7481639 149.008959"/>
      <path fill="#2E2A5D" d="M67.9919099,283.271413 L63.3090204,283.414172 C63.3090204,283.414172 52.4929889,271.401244 46.4259201,252.142841 C46.2842338,251.695176 46.1353042,251.240462 45.977188,250.782222 C42.6569245,241.12394 35.7734814,228.999977 32.1459954,218.026899 C31.5686504,216.278539 31.0501353,214.634164 30.5849733,213.076149 C30.4362204,212.577373 30.2908242,212.087409 30.1530246,211.604495 L34.0101766,208.685861 C34.0101766,208.685861 45.5911725,227.394375 49.1762586,244.99959 C52.2907061,260.292457 64.7633361,278.694304 67.9919099,283.271413"/>
      <path fill="#3C386B" d="M34.4127987,246.638678 C34.4790485,255.20071 34.0451565,274.885627 32.9273898,283.035243 L28.779622,283.035243 C26.4870254,283.035243 25.3434654,283.001757 25.3434654,283.001757 C22.539597,268.833339 20.5448595,257.109454 19.0923105,247.007032 C17.9010507,238.71642 16.8419371,231.608418 16.0275062,225.489156 C15.2075986,219.332882 14.6376736,214.175924 14.4336242,209.820885 C14.4021776,209.135288 14.3785044,208.467315 14.3654311,207.81873 C14.3527111,207.168382 14.3490011,206.535659 14.3544778,205.92056 L36.9868245,203.72101 C36.701862,218.721309 34.3760522,241.663253 34.4127987,246.638678"/>
      <path fill="#2E2A5D" d="M28.779622,283.035243 C26.4870254,283.035243 25.3434654,283.001757 25.3434654,283.001757 C22.539597,268.833339 20.5448595,257.109454 19.0923105,247.007032 C17.9010507,238.71642 16.8419371,231.608418 16.0275062,225.489156 C15.2075986,219.332882 14.6376736,214.175924 14.4336242,209.820885 L22.7381698,214.694087 C22.7381698,214.694087 17.4376554,216.55877 19.4601294,230.683126 C21.4826035,244.80572 25.9648003,281.034851 28.779622,283.035243"/>
      <path fill="#FB004E" d="M29.8484522,209.681651 C29.8484522,209.681651 28.2543935,215.427271 22.7386998,214.694087 C17.2231827,213.960904 9.3799124,210.659816 9.3799124,210.659816 C9.3799124,210.659816 11.7369921,203.229284 14.6675302,193.467017 C18.2160464,181.649721 22.6083201,166.415015 24.6783174,156.806083 C25.2593723,154.113043 25.6565178,151.865907 25.8036807,150.255018 L30.474557,141.393544 C30.474557,141.393544 37.2025339,156.673898 37.5701761,160.526636 C37.937995,164.377611 29.8484522,209.681651 29.8484522,209.681651"/>
      <path fill="#FFB27D" d="M49.5469042,164.825276 C46.8923187,165.174243 45.8743683,166.580687 45.546476,168.478856 C45.3698098,169.504608 44.8405181,170.51626 44.390726,171.231819 C41.7463872,171.372816 35.4491224,171.714733 30.1583246,172.049601 L29.7219592,178.972544 C34.0681231,178.433231 39.4092707,177.333456 45.5558393,175.234366 C46.0280679,175.153293 46.6184862,174.860725 47.357834,174.256201 C51.1667561,171.143696 53.3289731,165.932101 53.3357158,165.186581 C53.3423997,164.439298 52.2013131,164.478072 49.5469042,164.825276"/>
      <path fill="#D70647" d="M29.6037696,168.596941 C29.3574969,174.832525 27.8867513,186.937102 14.7724699,193.417668 C14.73749,193.43353 14.7025101,193.452917 14.6675302,193.467017 C18.2160464,181.649721 22.6083201,166.415015 24.6783174,156.806083 C27.0869836,160.397976 29.7380358,165.161906 29.6037696,168.596941"/>
      <path fill="#FB004E" d="M30.474557,141.393544 C30.474557,141.393544 19.25661,142.187004 16.5601546,148.178664 C13.8636992,154.169442 13.0056317,174.101104 16.4375483,179.970097 C16.4375483,179.970097 21.1624844,181.313091 29.5193231,179.755077 C29.6217895,179.73569 29.7247859,179.716302 29.8281356,179.695153 C29.8281356,179.695153 32.4942044,173.184625 30.1039114,171.899792 C30.1039114,171.899792 23.0563455,172.268146 23.79163,169.943461 C24.5270912,167.620538 30.474557,141.393544 30.474557,141.393544"/>
      <path fill="#FFB27D" d="M92.3529349 144.306362C86.3174893 143.532642 84.7942738 149.008959 84.7942738 149.008959L85.9212272 152.770049C87.781345 153.027368 89.4095002 152.542691 90.9093958 150.401302 92.4092914 148.260794 92.8223369 149.082982 93.7758041 147.489542 95.0693536 145.328061 93.0454662 144.522793 92.3529349 144.306362M75.1216256 154.105994C74.2206283 154.511359 72.5882331 155.269217 70.9205046 156.046462 71.8126687 157.627389 72.9291987 160.500199 73.2259979 165.248267 75.0191592 164.137917 77.3409057 162.289096 79.3227466 160.348628 82.5027372 157.236123 85.875294 152.770049 85.875294 152.770049L84.7481639 149.008959C84.7481639 149.008959 77.6550182 152.965682 75.1216256 154.105994"/>
      <path fill="#202F4E" d="M5.68988659,301 C5.39944744,301 5.16183148,300.762068 5.16183148,300.473024 C5.16183148,300.182218 5.39944744,299.946049 5.68988659,299.946049 L400.471768,299.946049 C400.761501,299.946049 401,300.182218 401,300.473024 C401,300.762068 400.761501,301 400.471768,301 L5.68988659,301 Z"/>
    </g>
  </g>
</svg>
