<svg xmlns="http://www.w3.org/2000/svg" xmlns:xlink="http://www.w3.org/1999/xlink" width="320" height="291" xmlns:v="https://vecta.io/nano"><defs><path d="M379.732 2525.998c10.086 19.056 15.796 40.669 15.796 63.578 0 71.4-55.108 130.1-125.975 138.4 11.142 1.8 23.188 7.3 34.129 15.6 5.631 4.539 11.184 9.711 16.721 14.966l1.954 1.857c26.37 25.099 52.551 50.629 85.317 17.176 0 0 7.328-9.1 13.852-28.3 4.855-16.181 6.217-22.386 6.475-23.647l.001 50.55c-9.841 18.684-26.599 36.295-54.657 35.297-48.684-1.8-61.733-53.3-98.472-66-35.735-13.8-69.864 2.6-87.33 16.4-15.659 12.9-29.411 34-34.932 43.1-4.337 7.631-6.214 11.289-6.489 11.829l-.034.068h0c-.001.003 4.716-73.497 84.718-89.897-68.86-10.1-122.261-67.8-122.261-137.4 0-22.909 5.879-44.522 16.203-63.578l42.477.002c-7.878 18.88-12.405 40.634-12.405 63.776 0 72.5 44.066 131.2 96.464 130.901 53.201 0 96.464-58.701 96.464-130.901 0-23.142-4.342-44.897-12.026-63.776z" id="A"/></defs><use fill="#dc0e44" fill-rule="nonzero" xlink:href="#A" transform="translate(-108 -2526)"/></svg>